<svg viewBox="0 0 44 41" fill="none" xmlns="http://www.w3.org/2000/svg">
<path d="M19.9738 36.1827L19.9705 36.1797C14.3809 31.0499 9.926 26.9501 6.84159 23.131C3.78335 19.3443 2.30709 16.111 2.30709 12.7526C2.30709 7.26939 6.50839 3.07369 11.843 3.07369C14.882 3.07369 17.8447 4.51752 19.7732 6.79164L21.5328 8.86652L23.2924 6.79164C25.2209 4.51752 28.1837 3.07369 31.2226 3.07369C36.5572 3.07369 40.7585 7.26939 40.7585 12.7526C40.7585 16.111 39.2823 19.3443 36.224 23.131C33.1396 26.9501 28.6847 31.0499 23.0951 36.1797L23.0918 36.1827L21.5328 37.6191L19.9738 36.1827Z" stroke="white" stroke-width="4.61417"/>
</svg>
