<svg width="394" height="391" viewBox="0 0 394 391" fill="none" xmlns="http://www.w3.org/2000/svg">
<line x1="0.158447" y1="39.1522" x2="148.631" y2="39.1522" stroke="url(#paint0_linear_78_1095)" stroke-width="28.7366"/>
<line x1="0.158447" y1="92.9032" x2="148.631" y2="92.9032" stroke="url(#paint1_linear_78_1095)" stroke-width="28.7366"/>
<line x1="0.158447" y1="146.655" x2="148.631" y2="146.655" stroke="url(#paint2_linear_78_1095)" stroke-width="28.7366"/>
<line x1="0.158447" y1="200.406" x2="148.631" y2="200.406" stroke="url(#paint3_linear_78_1095)" stroke-width="28.7366"/>
<line x1="0.158447" y1="254.158" x2="148.631" y2="254.158" stroke="url(#paint4_linear_78_1095)" stroke-width="28.7366"/>
<line x1="0.158447" y1="307.909" x2="148.631" y2="307.909" stroke="url(#paint5_linear_78_1095)" stroke-width="28.7366"/>
<path d="M184.79 53L196.477 22.156H199.829L211.468 53H208.786L205.385 43.9959H190.921L187.52 53H184.79ZM191.496 41.8406H204.762L198.105 24.2634L191.496 41.8406ZM217.693 53V30.2981H219.992L220.232 33.0759C221.381 32.1181 222.69 31.3358 224.159 30.7291C225.628 30.1225 227.384 29.8191 229.428 29.8191C232.269 29.8191 234.329 30.4737 235.606 31.7828C236.883 33.0919 237.522 35.1673 237.522 38.0091V53H234.888V38.057C234.888 35.8219 234.425 34.2573 233.499 33.3633C232.605 32.4693 230.88 32.0223 228.326 32.0223C226.73 32.0223 225.245 32.3256 223.872 32.9323C222.531 33.5389 221.349 34.3372 220.328 35.327V53H217.693ZM253.068 61.4294C251.376 61.4294 249.763 61.3336 248.231 61.142C246.698 60.9824 245.373 60.695 244.255 60.2799V58.0289C245.565 58.444 246.969 58.7473 248.47 58.9389C250.003 59.1624 251.503 59.2742 252.972 59.2742C255.463 59.2742 257.362 59.0826 258.672 58.6994C259.981 58.3163 260.635 57.4063 260.635 55.9695C260.635 54.8838 260.3 54.1175 259.629 53.6705C258.959 53.2554 257.714 53.0479 255.894 53.0479H249.715C247.608 53.0479 246.059 52.7126 245.07 52.0421C244.08 51.3716 243.585 50.3818 243.585 49.0727C243.585 48.1467 243.92 47.2846 244.591 46.4864C245.261 45.6881 246.235 45.1294 247.512 44.8101C246.075 44.2353 245.054 43.3413 244.447 42.128C243.872 40.9147 243.585 39.5257 243.585 37.9612C243.585 35.1194 244.367 33.06 245.932 31.7828C247.496 30.4737 249.923 29.8191 253.212 29.8191C253.882 29.8191 254.553 29.883 255.223 30.0107C255.926 30.1065 256.484 30.2023 256.9 30.2981H264.898L264.802 32.2617H260.396C261.226 32.9642 261.817 33.8103 262.168 34.8001C262.551 35.79 262.743 36.8436 262.743 37.9612C262.743 40.5475 262.008 42.5271 260.539 43.9001C259.103 45.2411 256.82 45.9116 253.691 45.9116C253.18 45.9116 252.685 45.8957 252.206 45.8637C251.727 45.7999 251.2 45.7201 250.625 45.6243C249.444 45.752 248.406 46.0872 247.512 46.6301C246.618 47.1409 246.171 47.8593 246.171 48.7853C246.171 49.4877 246.443 49.9986 246.985 50.3179C247.56 50.6372 248.598 50.7969 250.099 50.7969H256.468C261.002 50.7969 263.269 52.4732 263.269 55.8258C263.269 58.0608 262.375 59.5456 260.587 60.2799C258.799 61.0463 256.293 61.4294 253.068 61.4294ZM253.212 43.8522C255.83 43.8522 257.634 43.4052 258.624 42.5111C259.645 41.6171 260.156 40.1005 260.156 37.9612C260.156 35.8219 259.614 34.2733 258.528 33.3154C257.474 32.3575 255.702 31.8786 253.212 31.8786C250.721 31.8786 248.933 32.3416 247.847 33.2675C246.762 34.1935 246.219 35.758 246.219 37.9612C246.219 40.0047 246.73 41.5054 247.752 42.4632C248.805 43.3892 250.625 43.8522 253.212 43.8522ZM280.246 53.4789C276.159 53.4789 273.174 52.5211 271.29 50.6053C269.438 48.6576 268.512 45.6243 268.512 41.5054C268.512 37.8654 269.326 35.0077 270.955 32.9323C272.615 30.8568 275.297 29.8191 279.001 29.8191C281.204 29.8191 282.992 30.2342 284.365 31.0644C285.738 31.8626 286.744 32.9482 287.382 34.3212C288.053 35.6942 288.388 37.2268 288.388 38.9191V43.038H271.146C271.274 45.9755 272.04 48.0988 273.445 49.4079C274.85 50.6851 277.293 51.3237 280.773 51.3237C282.88 51.3237 284.924 50.9246 286.903 50.1263V52.2816C284.956 53.0798 282.737 53.4789 280.246 53.4789ZM271.146 40.9785H285.993V38.8233C285.993 36.7159 285.451 35.0556 284.365 33.8423C283.279 32.6289 281.507 32.0223 279.049 32.0223C276.047 32.0223 273.972 32.8045 272.823 34.3691C271.705 35.9017 271.146 38.1049 271.146 40.9785ZM295.101 53V30.2981H297.4L297.687 33.4591C298.869 32.6289 300.21 31.8946 301.71 31.256C303.243 30.6174 304.744 30.1384 306.212 29.8191V31.9744C305.286 32.1979 304.281 32.5012 303.195 32.8844C302.141 33.2675 301.12 33.6986 300.13 34.1775C299.172 34.6245 298.374 35.0875 297.735 35.5665V53H295.101Z" fill="white"/>
<path d="M185.748 106.029V75.1853H197.339C200.308 75.1853 202.703 75.7281 204.523 76.8137C206.343 77.8674 207.668 79.5437 208.498 81.8426C209.36 84.1416 209.791 87.143 209.791 90.8468C209.791 96.0832 208.833 99.9307 206.918 102.389C205.034 104.816 201.841 106.029 197.339 106.029H185.748ZM188.383 103.922H196.764C199.095 103.922 201.027 103.571 202.559 102.868C204.092 102.166 205.241 100.873 206.008 98.9888C206.774 97.105 207.157 94.391 207.157 90.8468C207.157 87.3345 206.806 84.6046 206.103 82.6568C205.433 80.6772 204.331 79.3042 202.799 78.5379C201.298 77.7397 199.286 77.3406 196.764 77.3406H188.383V103.922ZM217.524 77.4364V74.5627H220.541V77.4364H217.524ZM217.859 106.029V85.5305H214.315L214.602 83.3274H220.493V106.029H217.859ZM234.36 106.508C233.019 106.508 231.726 106.412 230.481 106.221C229.267 106.061 228.229 105.838 227.367 105.55V103.204C228.421 103.555 229.507 103.826 230.624 104.018C231.742 104.177 232.875 104.257 234.025 104.257C236.26 104.257 237.856 103.97 238.814 103.395C239.772 102.788 240.251 101.751 240.251 100.282C240.251 99.2602 240.012 98.4939 239.533 97.983C239.086 97.4402 238.367 96.9773 237.377 96.5941C236.388 96.211 235.126 95.7639 233.594 95.2531C232.316 94.8061 231.151 94.375 230.097 93.9599C229.076 93.5129 228.261 92.9062 227.655 92.1399C227.048 91.3417 226.745 90.2401 226.745 88.8352C226.745 86.8556 227.399 85.3709 228.708 84.381C230.018 83.3593 232.141 82.8484 235.078 82.8484C236.228 82.8484 237.313 82.9283 238.335 83.0879C239.389 83.2156 240.315 83.4072 241.113 83.6626V86.0095C239.261 85.4347 237.377 85.1474 235.462 85.1474C233.195 85.1474 231.598 85.4347 230.672 86.0095C229.778 86.5523 229.331 87.4782 229.331 88.7873C229.331 89.6814 229.523 90.3838 229.906 90.8947C230.321 91.3736 230.959 91.7887 231.822 92.1399C232.716 92.4912 233.865 92.8903 235.27 93.3373C236.962 93.8801 238.367 94.4229 239.485 94.9657C240.634 95.5085 241.48 96.195 242.023 97.0252C242.598 97.8234 242.885 98.909 242.885 100.282C242.885 102.517 242.119 104.114 240.586 105.071C239.086 106.029 237.01 106.508 234.36 106.508ZM257.745 114.459C256.053 114.459 254.44 114.363 252.908 114.171C251.375 114.012 250.05 113.724 248.933 113.309V111.058C250.242 111.473 251.647 111.777 253.147 111.968C254.68 112.192 256.181 112.303 257.649 112.303C260.14 112.303 262.04 112.112 263.349 111.729C264.658 111.346 265.312 110.436 265.312 108.999C265.312 107.913 264.977 107.147 264.307 106.7C263.636 106.285 262.391 106.077 260.571 106.077H254.393C252.285 106.077 250.737 105.742 249.747 105.071C248.757 104.401 248.262 103.411 248.262 102.102C248.262 101.176 248.597 100.314 249.268 99.5157C249.938 98.7174 250.912 98.1587 252.189 97.8394C250.753 97.2646 249.731 96.3706 249.124 95.1573C248.549 93.944 248.262 92.555 248.262 90.9905C248.262 88.1487 249.044 86.0893 250.609 84.8121C252.173 83.503 254.6 82.8484 257.889 82.8484C258.559 82.8484 259.23 82.9123 259.9 83.04C260.603 83.1358 261.162 83.2316 261.577 83.3274H269.575L269.479 85.291H265.073C265.903 85.9935 266.494 86.8396 266.845 87.8294C267.228 88.8193 267.42 89.8729 267.42 90.9905C267.42 93.5768 266.685 95.5564 265.217 96.9294C263.78 98.2704 261.497 98.9409 258.368 98.9409C257.857 98.9409 257.362 98.925 256.883 98.893C256.404 98.8292 255.877 98.7494 255.303 98.6536C254.121 98.7813 253.083 99.1165 252.189 99.6593C251.295 100.17 250.848 100.889 250.848 101.815C250.848 102.517 251.12 103.028 251.663 103.347C252.237 103.667 253.275 103.826 254.776 103.826H261.146C265.68 103.826 267.947 105.502 267.947 108.855C267.947 111.09 267.053 112.575 265.265 113.309C263.477 114.076 260.97 114.459 257.745 114.459ZM257.889 96.8815C260.507 96.8815 262.311 96.4345 263.301 95.5404C264.323 94.6464 264.834 93.1297 264.834 90.9905C264.834 88.8512 264.291 87.3026 263.205 86.3447C262.151 85.3868 260.379 84.9079 257.889 84.9079C255.398 84.9079 253.61 85.3709 252.525 86.2968C251.439 87.2228 250.896 88.7873 250.896 90.9905C250.896 93.034 251.407 94.5347 252.429 95.4925C253.483 96.4185 255.303 96.8815 257.889 96.8815ZM283.129 106.508C280.415 106.508 278.355 105.742 276.95 104.209C275.546 102.677 274.843 100.505 274.843 97.6957V83.3274H277.477V97.7915C277.477 99.9627 278.02 101.607 279.106 102.725C280.191 103.81 281.899 104.353 284.23 104.353C285.827 104.353 287.28 104.05 288.589 103.443C289.93 102.804 291.079 102.006 292.037 101.048V83.3274H294.671V106.029H292.324L292.085 103.251C290.967 104.241 289.69 105.039 288.253 105.646C286.817 106.221 285.108 106.508 283.129 106.508ZM308.493 106.508C307.152 106.508 305.859 106.412 304.614 106.221C303.401 106.061 302.363 105.838 301.501 105.55V103.204C302.554 103.555 303.64 103.826 304.758 104.018C305.875 104.177 307.009 104.257 308.158 104.257C310.393 104.257 311.99 103.97 312.948 103.395C313.905 102.788 314.384 101.751 314.384 100.282C314.384 99.2602 314.145 98.4939 313.666 97.983C313.219 97.4402 312.5 96.9773 311.511 96.5941C310.521 96.211 309.26 95.7639 307.727 95.2531C306.45 94.8061 305.284 94.375 304.231 93.9599C303.209 93.5129 302.395 92.9062 301.788 92.1399C301.181 91.3417 300.878 90.2401 300.878 88.8352C300.878 86.8556 301.533 85.3709 302.842 84.381C304.151 83.3593 306.274 82.8484 309.212 82.8484C310.361 82.8484 311.447 82.9283 312.469 83.0879C313.522 83.2156 314.448 83.4072 315.246 83.6626V86.0095C313.395 85.4347 311.511 85.1474 309.595 85.1474C307.328 85.1474 305.731 85.4347 304.805 86.0095C303.911 86.5523 303.464 87.4782 303.464 88.7873C303.464 89.6814 303.656 90.3838 304.039 90.8947C304.454 91.3736 305.093 91.7887 305.955 92.1399C306.849 92.4912 307.998 92.8903 309.403 93.3373C311.096 93.8801 312.5 94.4229 313.618 94.9657C314.767 95.5085 315.614 96.195 316.156 97.0252C316.731 97.8234 317.019 98.909 317.019 100.282C317.019 102.517 316.252 104.114 314.72 105.071C313.219 106.029 311.143 106.508 308.493 106.508ZM330.458 106.508C328.447 106.508 326.898 105.949 325.813 104.832C324.727 103.714 324.184 102.15 324.184 100.138V85.5305H320.64V83.3274H324.184V77.3885L326.819 76.5264V83.3274H333.38L333.236 85.5305H326.819V100.043C326.819 101.511 327.154 102.597 327.824 103.299C328.527 104.002 329.66 104.353 331.225 104.353C331.64 104.353 332.071 104.321 332.518 104.257C332.997 104.161 333.508 104.018 334.051 103.826V105.934C332.997 106.317 331.8 106.508 330.458 106.508ZM349.843 106.508C345.756 106.508 342.77 105.55 340.886 103.635C339.034 101.687 338.109 98.6536 338.109 94.5347C338.109 90.8947 338.923 88.037 340.551 85.9616C342.211 83.8861 344.894 82.8484 348.597 82.8484C350.801 82.8484 352.589 83.2635 353.962 84.0937C355.335 84.8919 356.34 85.9775 356.979 87.3505C357.649 88.7235 357.985 90.2561 357.985 91.9484V96.0673H340.743C340.87 99.0048 341.637 101.128 343.042 102.437C344.447 103.714 346.889 104.353 350.369 104.353C352.477 104.353 354.52 103.954 356.5 103.156V105.311C354.552 106.109 352.333 106.508 349.843 106.508ZM340.743 94.0078H355.59V91.8526C355.59 89.7452 355.047 88.0849 353.962 86.8716C352.876 85.6582 351.104 85.0516 348.645 85.0516C345.644 85.0516 343.568 85.8338 342.419 87.3984C341.301 88.931 340.743 91.1342 340.743 94.0078ZM373.425 106.508C371.446 106.508 369.69 106.109 368.157 105.311C366.624 104.513 365.427 103.267 364.565 101.575C363.703 99.8509 363.272 97.6159 363.272 94.8699C363.272 90.751 364.198 87.7177 366.05 85.77C367.933 83.8223 370.472 82.8484 373.665 82.8484C375.229 82.8484 376.618 83.04 377.832 83.4232C379.077 83.7744 380.274 84.381 381.424 85.2431V73.7485H384.058V106.029H381.855L381.615 103.491C380.53 104.513 379.332 105.279 378.023 105.79C376.714 106.269 375.181 106.508 373.425 106.508ZM374.048 104.353C377.049 104.353 379.508 103.331 381.424 101.288V87.5421C380.53 86.7758 379.524 86.1691 378.406 85.7221C377.289 85.2751 375.948 85.0516 374.383 85.0516C371.573 85.0516 369.45 85.8338 368.013 87.3984C366.576 88.9629 365.858 91.4534 365.858 94.8699C365.858 98.0948 366.529 100.49 367.87 102.054C369.211 103.587 371.27 104.353 374.048 104.353Z" fill="white"/>
<path d="M185.748 159.058V128.214H188.383V142.582H206.103V128.214H208.738V159.058H206.103V144.689H188.383V159.058H185.748ZM222.861 159.537C221.424 159.537 220.099 159.313 218.886 158.866C217.704 158.419 216.746 157.717 216.012 156.759C215.309 155.769 214.958 154.524 214.958 153.023C214.958 151.011 215.597 149.383 216.874 148.138C218.151 146.861 220.322 146.222 223.388 146.222H231.865V144.067C231.865 142.63 231.673 141.48 231.29 140.618C230.907 139.724 230.205 139.086 229.183 138.703C228.193 138.319 226.724 138.128 224.777 138.128C223.468 138.128 222.206 138.24 220.993 138.463C219.78 138.687 218.63 138.99 217.545 139.373V137.122C218.534 136.739 219.684 136.436 220.993 136.212C222.334 135.989 223.755 135.877 225.256 135.877C228.385 135.877 230.684 136.515 232.152 137.793C233.653 139.038 234.403 141.113 234.403 144.019V159.058H232.248L232.009 156.232C230.955 157.349 229.71 158.18 228.273 158.722C226.836 159.265 225.032 159.537 222.861 159.537ZM223.531 157.333C225.351 157.333 226.948 157.046 228.321 156.471C229.694 155.865 230.875 154.971 231.865 153.789V148.329H223.483C221.248 148.329 219.7 148.728 218.838 149.527C217.976 150.325 217.545 151.49 217.545 153.023C217.545 154.587 218.071 155.705 219.125 156.376C220.211 157.014 221.679 157.333 223.531 157.333ZM241.36 169.403V136.356H243.563L243.803 138.942C244.92 137.888 246.118 137.122 247.395 136.643C248.704 136.132 250.236 135.877 251.993 135.877C255.186 135.877 257.676 136.819 259.464 138.703C261.252 140.554 262.146 143.54 262.146 147.659C262.146 151.778 261.22 154.795 259.368 156.711C257.516 158.595 254.994 159.537 251.801 159.537C250.205 159.537 248.784 159.345 247.538 158.962C246.293 158.579 245.112 157.988 243.994 157.19V169.403H241.36ZM251.13 157.381C253.972 157.381 256.08 156.615 257.453 155.082C258.857 153.518 259.56 151.043 259.56 147.659C259.56 144.434 258.921 142.039 257.644 140.475C256.399 138.878 254.307 138.08 251.37 138.08C248.369 138.08 245.91 139.102 243.994 141.145V154.843C244.888 155.609 245.91 156.232 247.059 156.711C248.209 157.158 249.566 157.381 251.13 157.381ZM268.394 169.403V136.356H270.597L270.837 138.942C271.954 137.888 273.152 137.122 274.429 136.643C275.738 136.132 277.271 135.877 279.027 135.877C282.22 135.877 284.71 136.819 286.498 138.703C288.286 140.554 289.18 143.54 289.18 147.659C289.18 151.778 288.254 154.795 286.402 156.711C284.551 158.595 282.028 159.537 278.835 159.537C277.239 159.537 275.818 159.345 274.573 158.962C273.327 158.579 272.146 157.988 271.028 157.19V169.403H268.394ZM278.165 157.381C281.006 157.381 283.114 156.615 284.487 155.082C285.892 153.518 286.594 151.043 286.594 147.659C286.594 144.434 285.955 142.039 284.678 140.475C283.433 138.878 281.342 138.08 278.404 138.08C275.403 138.08 272.944 139.102 271.028 141.145V154.843C271.922 155.609 272.944 156.232 274.094 156.711C275.243 157.158 276.6 157.381 278.165 157.381ZM296.21 167.487C295.539 167.487 294.916 167.439 294.342 167.343C293.799 167.279 293.272 167.152 292.761 166.96V164.757C293.304 164.949 293.799 165.076 294.246 165.14C294.725 165.204 295.204 165.236 295.683 165.236C296.8 165.236 297.694 164.981 298.365 164.47C299.035 163.991 299.626 163.272 300.137 162.314C300.648 161.388 301.191 160.255 301.765 158.914L291.851 136.356H294.581L303.106 156.088L311.967 136.356H314.649L304.831 158.339C304.064 160.095 303.298 161.66 302.532 163.033C301.797 164.406 300.935 165.491 299.945 166.29C298.955 167.088 297.71 167.487 296.21 167.487Z" fill="white"/>
<path d="M185.748 212.087V181.243H188.239L207.349 208.16V181.243H209.983V212.087H207.444L188.383 185.218V212.087H185.748ZM227.955 212.566C223.868 212.566 220.883 211.608 218.999 209.692C217.147 207.744 216.221 204.711 216.221 200.592C216.221 196.952 217.035 194.095 218.664 192.019C220.324 189.944 223.006 188.906 226.71 188.906C228.913 188.906 230.701 189.321 232.074 190.151C233.447 190.95 234.453 192.035 235.091 193.408C235.762 194.781 236.097 196.314 236.097 198.006V202.125H218.855C218.983 205.062 219.749 207.186 221.154 208.495C222.559 209.772 225.002 210.411 228.482 210.411C230.589 210.411 232.633 210.011 234.613 209.213V211.368C232.665 212.167 230.446 212.566 227.955 212.566ZM218.855 200.065H233.703V197.91C233.703 195.803 233.16 194.142 232.074 192.929C230.989 191.716 229.216 191.109 226.758 191.109C223.756 191.109 221.681 191.891 220.532 193.456C219.414 194.989 218.855 197.192 218.855 200.065ZM250.856 212.566C248.142 212.566 246.083 211.8 244.678 210.267C243.273 208.734 242.57 206.563 242.57 203.753V189.385H245.205V203.849C245.205 206.02 245.747 207.665 246.833 208.782C247.919 209.868 249.627 210.411 251.958 210.411C253.554 210.411 255.007 210.107 256.316 209.501C257.657 208.862 258.807 208.064 259.765 207.106V189.385H262.399V212.087H260.052L259.812 209.309C258.695 210.299 257.418 211.097 255.981 211.704C254.544 212.278 252.836 212.566 250.856 212.566ZM277.466 212.566C275.454 212.566 273.906 212.007 272.82 210.89C271.735 209.772 271.192 208.207 271.192 206.196V191.588H267.648V189.385H271.192V183.446L273.826 182.584V189.385H280.388L280.244 191.588H273.826V206.1C273.826 207.569 274.161 208.654 274.832 209.357C275.534 210.059 276.668 210.411 278.232 210.411C278.647 210.411 279.078 210.379 279.525 210.315C280.004 210.219 280.515 210.075 281.058 209.884V211.991C280.004 212.374 278.807 212.566 277.466 212.566ZM286.074 212.087V189.385H288.373L288.66 192.546C289.842 191.716 291.183 190.981 292.683 190.343C294.216 189.704 295.717 189.225 297.185 188.906V191.061C296.259 191.285 295.254 191.588 294.168 191.971C293.114 192.354 292.093 192.785 291.103 193.264C290.145 193.711 289.347 194.174 288.708 194.653V212.087H286.074ZM307.611 212.566C306.175 212.566 304.849 212.342 303.636 211.895C302.455 211.448 301.497 210.746 300.763 209.788C300.06 208.798 299.709 207.553 299.709 206.052C299.709 204.041 300.347 202.412 301.625 201.167C302.902 199.89 305.073 199.251 308.138 199.251H316.616V197.096C316.616 195.659 316.424 194.51 316.041 193.648C315.658 192.754 314.955 192.115 313.933 191.732C312.944 191.349 311.475 191.157 309.527 191.157C308.218 191.157 306.957 191.269 305.744 191.492C304.53 191.716 303.381 192.019 302.295 192.402V190.151C303.285 189.768 304.434 189.465 305.744 189.241C307.085 189.018 308.505 188.906 310.006 188.906C313.135 188.906 315.434 189.545 316.903 190.822C318.404 192.067 319.154 194.142 319.154 197.048V212.087H316.999L316.759 209.261C315.706 210.379 314.46 211.209 313.023 211.752C311.587 212.294 309.783 212.566 307.611 212.566ZM308.282 210.363C310.102 210.363 311.698 210.075 313.071 209.501C314.444 208.894 315.626 208 316.616 206.819V201.359H308.234C305.999 201.359 304.45 201.758 303.588 202.556C302.726 203.354 302.295 204.52 302.295 206.052C302.295 207.617 302.822 208.734 303.876 209.405C304.961 210.043 306.43 210.363 308.282 210.363ZM330.325 212.566C329.048 212.566 328.026 212.215 327.26 211.512C326.494 210.81 326.111 209.549 326.111 207.729V179.806H328.745V207.633C328.745 208.654 328.904 209.357 329.224 209.74C329.543 210.123 330.054 210.315 330.756 210.315C331.459 210.315 332.161 210.219 332.864 210.027V212.231C332.449 212.358 332.018 212.438 331.571 212.47C331.124 212.534 330.708 212.566 330.325 212.566Z" fill="white"/>
<path d="M194.513 265.594C190.809 265.594 187.824 265.147 185.557 264.253V261.906C188.207 262.864 191.128 263.343 194.321 263.343C197.323 263.343 199.59 262.88 201.122 261.954C202.655 261.028 203.421 259.464 203.421 257.261C203.421 255.92 203.118 254.834 202.511 254.004C201.905 253.174 200.931 252.487 199.59 251.944C198.281 251.37 196.509 250.843 194.274 250.364C191.911 249.821 190.027 249.198 188.622 248.496C187.249 247.762 186.259 246.867 185.653 245.814C185.078 244.76 184.79 243.515 184.79 242.078C184.79 239.588 185.684 237.592 187.473 236.091C189.293 234.559 192.086 233.792 195.854 233.792C197.578 233.792 199.191 233.92 200.691 234.175C202.192 234.431 203.342 234.686 204.14 234.942V237.289C201.841 236.49 199.255 236.091 196.381 236.091C193.475 236.091 191.24 236.57 189.676 237.528C188.143 238.454 187.377 239.971 187.377 242.078C187.377 243.259 187.632 244.233 188.143 245C188.686 245.734 189.596 246.357 190.873 246.867C192.15 247.378 193.906 247.905 196.141 248.448C198.664 249.023 200.628 249.725 202.032 250.555C203.469 251.354 204.491 252.311 205.098 253.429C205.704 254.515 206.008 255.792 206.008 257.261C206.008 260.007 205.034 262.082 203.086 263.487C201.138 264.892 198.281 265.594 194.513 265.594ZM218.464 265.594C217.027 265.594 215.702 265.371 214.489 264.924C213.308 264.477 212.35 263.774 211.615 262.816C210.913 261.826 210.562 260.581 210.562 259.081C210.562 257.069 211.2 255.441 212.477 254.195C213.755 252.918 215.926 252.28 218.991 252.28H227.468V250.124C227.468 248.687 227.277 247.538 226.894 246.676C226.511 245.782 225.808 245.143 224.786 244.76C223.797 244.377 222.328 244.185 220.38 244.185C219.071 244.185 217.81 244.297 216.596 244.521C215.383 244.744 214.234 245.047 213.148 245.431V243.18C214.138 242.796 215.287 242.493 216.596 242.27C217.937 242.046 219.358 241.934 220.859 241.934C223.988 241.934 226.287 242.573 227.756 243.85C229.256 245.095 230.007 247.171 230.007 250.076V265.115H227.852L227.612 262.289C226.558 263.407 225.313 264.237 223.876 264.78C222.44 265.323 220.635 265.594 218.464 265.594ZM219.135 263.391C220.955 263.391 222.551 263.104 223.924 262.529C225.297 261.922 226.479 261.028 227.468 259.847V254.387H219.087C216.852 254.387 215.303 254.786 214.441 255.584C213.579 256.382 213.148 257.548 213.148 259.081C213.148 260.645 213.675 261.763 214.729 262.433C215.814 263.072 217.283 263.391 219.135 263.391ZM246.159 265.594C244.18 265.594 242.423 265.195 240.891 264.397C239.358 263.599 238.161 262.353 237.299 260.661C236.437 258.937 236.006 256.702 236.006 253.956C236.006 249.837 236.932 246.804 238.783 244.856C240.667 242.908 243.206 241.934 246.399 241.934C247.963 241.934 249.352 242.126 250.565 242.509C251.811 242.86 253.008 243.467 254.158 244.329V232.834H256.792V265.115H254.589L254.349 262.577C253.264 263.599 252.066 264.365 250.757 264.876C249.448 265.355 247.915 265.594 246.159 265.594ZM246.782 263.439C249.783 263.439 252.242 262.417 254.158 260.374V246.628C253.264 245.862 252.258 245.255 251.14 244.808C250.023 244.361 248.682 244.138 247.117 244.138C244.307 244.138 242.184 244.92 240.747 246.484C239.31 248.049 238.592 250.539 238.592 253.956C238.592 257.181 239.262 259.575 240.603 261.14C241.944 262.673 244.004 263.439 246.782 263.439Z" fill="white"/>
<path d="M185.748 318.145V287.301H205.193V289.456H188.383V301.669H203.421V303.776H188.383V318.145H185.748ZM219.302 318.623C215.215 318.623 212.23 317.666 210.346 315.75C208.494 313.802 207.568 310.769 207.568 306.65C207.568 303.01 208.383 300.152 210.011 298.077C211.671 296.001 214.353 294.964 218.057 294.964C220.26 294.964 222.048 295.379 223.421 296.209C224.794 297.007 225.8 298.093 226.439 299.466C227.109 300.839 227.444 302.371 227.444 304.064V308.183H210.203C210.33 311.12 211.097 313.243 212.501 314.552C213.906 315.83 216.349 316.468 219.829 316.468C221.937 316.468 223.98 316.069 225.96 315.271V317.426C224.012 318.224 221.793 318.623 219.302 318.623ZM210.203 306.123H225.05V303.968C225.05 301.86 224.507 300.2 223.421 298.987C222.336 297.773 220.564 297.167 218.105 297.167C215.104 297.167 213.028 297.949 211.879 299.514C210.761 301.046 210.203 303.249 210.203 306.123ZM240.634 318.623C239.197 318.623 237.872 318.4 236.659 317.953C235.478 317.506 234.52 316.803 233.785 315.846C233.083 314.856 232.732 313.611 232.732 312.11C232.732 310.098 233.37 308.47 234.647 307.225C235.925 305.947 238.096 305.309 241.161 305.309H249.638V303.154C249.638 301.717 249.447 300.567 249.064 299.705C248.68 298.811 247.978 298.173 246.956 297.789C245.966 297.406 244.498 297.215 242.55 297.215C241.241 297.215 239.98 297.326 238.766 297.55C237.553 297.773 236.403 298.077 235.318 298.46V296.209C236.308 295.826 237.457 295.522 238.766 295.299C240.107 295.075 241.528 294.964 243.029 294.964C246.158 294.964 248.457 295.602 249.926 296.879C251.426 298.125 252.177 300.2 252.177 303.106V318.145H250.021L249.782 315.319C248.728 316.436 247.483 317.266 246.046 317.809C244.609 318.352 242.805 318.623 240.634 318.623ZM241.305 316.42C243.125 316.42 244.721 316.133 246.094 315.558C247.467 314.952 248.648 314.058 249.638 312.876V307.416H241.257C239.022 307.416 237.473 307.815 236.611 308.614C235.749 309.412 235.318 310.577 235.318 312.11C235.318 313.674 235.845 314.792 236.898 315.462C237.984 316.101 239.453 316.42 241.305 316.42ZM259.133 318.145V295.443H261.432L261.72 298.604C262.901 297.773 264.242 297.039 265.743 296.4C267.275 295.762 268.776 295.283 270.245 294.964V297.119C269.319 297.342 268.313 297.646 267.227 298.029C266.174 298.412 265.152 298.843 264.162 299.322C263.204 299.769 262.406 300.232 261.768 300.711V318.145H259.133ZM276.757 318.145V297.646H273.26V295.443H276.757V291.611C276.757 289.568 277.315 287.971 278.433 286.822C279.582 285.672 281.243 285.097 283.414 285.097C284.148 285.097 284.819 285.161 285.425 285.289C286.032 285.385 286.591 285.528 287.102 285.72V287.827C286.623 287.668 286.128 287.54 285.617 287.444C285.138 287.348 284.627 287.301 284.084 287.301C282.328 287.301 281.099 287.636 280.397 288.306C279.726 288.977 279.391 290.062 279.391 291.563V295.443H285.713L285.569 297.646H279.391V318.145H276.757ZM299.686 318.623C296.972 318.623 294.913 317.857 293.508 316.325C292.103 314.792 291.4 312.621 291.4 309.811V295.443H294.034V309.907C294.034 312.078 294.577 313.722 295.663 314.84C296.748 315.925 298.457 316.468 300.788 316.468C302.384 316.468 303.837 316.165 305.146 315.558C306.487 314.92 307.636 314.121 308.594 313.164V295.443H311.229V318.145H308.882L308.642 315.367C307.525 316.356 306.248 317.155 304.811 317.761C303.374 318.336 301.666 318.623 299.686 318.623ZM322.608 318.623C321.331 318.623 320.309 318.272 319.543 317.57C318.776 316.867 318.393 315.606 318.393 313.786V285.864H321.027V313.69C321.027 314.712 321.187 315.415 321.506 315.798C321.826 316.181 322.337 316.372 323.039 316.372C323.741 316.372 324.444 316.277 325.146 316.085V318.288C324.731 318.416 324.3 318.496 323.853 318.528C323.406 318.592 322.991 318.623 322.608 318.623Z" fill="white"/>
<path d="M194.513 371.653C190.809 371.653 187.824 371.206 185.557 370.312V367.965C188.207 368.923 191.128 369.402 194.321 369.402C197.323 369.402 199.59 368.939 201.122 368.013C202.655 367.087 203.421 365.522 203.421 363.319C203.421 361.978 203.118 360.893 202.511 360.062C201.905 359.232 200.931 358.546 199.59 358.003C198.281 357.428 196.509 356.901 194.274 356.422C191.911 355.88 190.027 355.257 188.622 354.554C187.249 353.82 186.259 352.926 185.653 351.872C185.078 350.819 184.79 349.573 184.79 348.137C184.79 345.646 185.684 343.651 187.473 342.15C189.293 340.617 192.086 339.851 195.854 339.851C197.578 339.851 199.191 339.979 200.691 340.234C202.192 340.49 203.342 340.745 204.14 341V343.347C201.841 342.549 199.255 342.15 196.381 342.15C193.475 342.15 191.24 342.629 189.676 343.587C188.143 344.513 187.377 346.029 187.377 348.137C187.377 349.318 187.632 350.292 188.143 351.058C188.686 351.793 189.596 352.415 190.873 352.926C192.15 353.437 193.906 353.964 196.141 354.507C198.664 355.081 200.628 355.784 202.032 356.614C203.469 357.412 204.491 358.37 205.098 359.488C205.704 360.573 206.008 361.85 206.008 363.319C206.008 366.065 205.034 368.141 203.086 369.545C201.138 370.95 198.281 371.653 194.513 371.653ZM220.034 371.653C217.32 371.653 215.26 370.886 213.855 369.354C212.45 367.821 211.748 365.65 211.748 362.84V348.472H214.382V362.936C214.382 365.107 214.925 366.752 216.01 367.869C217.096 368.955 218.804 369.498 221.135 369.498C222.732 369.498 224.184 369.194 225.494 368.588C226.835 367.949 227.984 367.151 228.942 366.193V348.472H231.576V371.174H229.229L228.99 368.396C227.872 369.386 226.595 370.184 225.158 370.791C223.721 371.365 222.013 371.653 220.034 371.653ZM238.741 371.174V348.472H241.04L241.327 351.633C242.509 350.803 243.85 350.068 245.35 349.43C246.883 348.791 248.384 348.312 249.852 347.993V350.148C248.926 350.372 247.921 350.675 246.835 351.058C245.781 351.441 244.76 351.872 243.77 352.351C242.812 352.798 242.014 353.261 241.375 353.74V371.174H238.741ZM254.784 381.519V348.472H256.987L257.226 351.058C258.344 350.005 259.541 349.238 260.818 348.759C262.127 348.248 263.66 347.993 265.416 347.993C268.609 347.993 271.1 348.935 272.888 350.819C274.676 352.671 275.57 355.656 275.57 359.775C275.57 363.894 274.644 366.911 272.792 368.827C270.94 370.711 268.417 371.653 265.225 371.653C263.628 371.653 262.207 371.461 260.962 371.078C259.717 370.695 258.535 370.104 257.418 369.306V381.519H254.784ZM264.554 369.498C267.396 369.498 269.503 368.731 270.876 367.199C272.281 365.634 272.983 363.16 272.983 359.775C272.983 356.55 272.345 354.155 271.068 352.591C269.822 350.994 267.731 350.196 264.793 350.196C261.792 350.196 259.334 351.218 257.418 353.261V366.959C258.312 367.725 259.334 368.348 260.483 368.827C261.632 369.274 262.989 369.498 264.554 369.498ZM281.818 371.174V348.472H284.117L284.404 351.633C285.585 350.803 286.926 350.068 288.427 349.43C289.96 348.791 291.46 348.312 292.929 347.993V350.148C292.003 350.372 290.997 350.675 289.912 351.058C288.858 351.441 287.836 351.872 286.847 352.351C285.889 352.798 285.09 353.261 284.452 353.74V371.174H281.818ZM300.123 342.581V339.707H303.14V342.581H300.123ZM300.458 371.174V350.675H296.914L297.201 348.472H303.092V371.174H300.458ZM316.959 371.653C315.618 371.653 314.325 371.557 313.08 371.365C311.866 371.206 310.829 370.982 309.966 370.695V368.348C311.02 368.699 312.106 368.971 313.223 369.162C314.341 369.322 315.474 369.402 316.624 369.402C318.859 369.402 320.455 369.114 321.413 368.54C322.371 367.933 322.85 366.895 322.85 365.427C322.85 364.405 322.611 363.638 322.132 363.128C321.685 362.585 320.966 362.122 319.976 361.739C318.987 361.355 317.725 360.908 316.193 360.398C314.916 359.951 313.75 359.52 312.696 359.104C311.675 358.657 310.86 358.051 310.254 357.284C309.647 356.486 309.344 355.385 309.344 353.98C309.344 352 309.998 350.515 311.307 349.526C312.617 348.504 314.74 347.993 317.677 347.993C318.827 347.993 319.913 348.073 320.934 348.232C321.988 348.36 322.914 348.552 323.712 348.807V351.154C321.86 350.579 319.976 350.292 318.061 350.292C315.794 350.292 314.197 350.579 313.271 351.154C312.377 351.697 311.93 352.623 311.93 353.932C311.93 354.826 312.122 355.528 312.505 356.039C312.92 356.518 313.559 356.933 314.421 357.284C315.315 357.636 316.464 358.035 317.869 358.482C319.561 359.025 320.966 359.567 322.084 360.11C323.233 360.653 324.079 361.34 324.622 362.17C325.197 362.968 325.484 364.054 325.484 365.427C325.484 367.662 324.718 369.258 323.185 370.216C321.685 371.174 319.609 371.653 316.959 371.653ZM341.798 371.653C337.711 371.653 334.725 370.695 332.842 368.779C330.99 366.831 330.064 363.798 330.064 359.679C330.064 356.039 330.878 353.182 332.506 351.106C334.167 349.031 336.849 347.993 340.553 347.993C342.756 347.993 344.544 348.408 345.917 349.238C347.29 350.036 348.296 351.122 348.934 352.495C349.605 353.868 349.94 355.401 349.94 357.093V361.212H332.698C332.826 364.149 333.592 366.273 334.997 367.582C336.402 368.859 338.844 369.498 342.325 369.498C344.432 369.498 346.476 369.098 348.455 368.3V370.455C346.507 371.254 344.288 371.653 341.798 371.653ZM332.698 359.152H347.545V356.997C347.545 354.89 347.002 353.229 345.917 352.016C344.831 350.803 343.059 350.196 340.601 350.196C337.599 350.196 335.524 350.978 334.374 352.543C333.257 354.076 332.698 356.279 332.698 359.152ZM365.381 371.653C363.401 371.653 361.645 371.254 360.112 370.455C358.58 369.657 357.382 368.412 356.52 366.72C355.658 364.995 355.227 362.76 355.227 360.014C355.227 355.896 356.153 352.862 358.005 350.915C359.889 348.967 362.427 347.993 365.62 347.993C367.185 347.993 368.574 348.185 369.787 348.568C371.032 348.919 372.229 349.526 373.379 350.388V338.893H376.013V371.174H373.81L373.571 368.635C372.485 369.657 371.288 370.423 369.978 370.934C368.669 371.413 367.137 371.653 365.381 371.653ZM366.003 369.498C369.005 369.498 371.463 368.476 373.379 366.432V352.687C372.485 351.92 371.479 351.314 370.362 350.867C369.244 350.42 367.903 350.196 366.338 350.196C363.529 350.196 361.405 350.978 359.969 352.543C358.532 354.107 357.813 356.598 357.813 360.014C357.813 363.239 358.484 365.634 359.825 367.199C361.166 368.731 363.225 369.498 366.003 369.498Z" fill="white"/>
<line x1="0.158447" y1="361.891" x2="148.631" y2="361.891" stroke="url(#paint6_linear_78_1095)" stroke-width="28.7366"/>
<defs>
<linearGradient id="paint0_linear_78_1095" x1="148.631" y1="54.5205" x2="-9.83489" y2="54.5205" gradientUnits="userSpaceOnUse">
<stop stop-color="#F45060"/>
<stop offset="0.811643" stop-color="#F45060" stop-opacity="0"/>
</linearGradient>
<linearGradient id="paint1_linear_78_1095" x1="141.493" y1="108.271" x2="15.8623" y2="108.271" gradientUnits="userSpaceOnUse">
<stop stop-color="#FC7B33"/>
<stop offset="1" stop-color="#FC7B33" stop-opacity="0"/>
</linearGradient>
<linearGradient id="paint2_linear_78_1095" x1="148.631" y1="161.023" x2="17.2899" y2="161.023" gradientUnits="userSpaceOnUse">
<stop stop-color="#CB9B47"/>
<stop offset="0.656728" stop-color="#CB9B47" stop-opacity="0.343272"/>
<stop offset="1" stop-color="#CB9B47" stop-opacity="0"/>
</linearGradient>
<linearGradient id="paint3_linear_78_1095" x1="148.631" y1="214.774" x2="17.2899" y2="214.774" gradientUnits="userSpaceOnUse">
<stop stop-color="#8DFFFF"/>
<stop offset="0.0001" stop-color="#68FFFF"/>
<stop offset="0.656728" stop-color="#82FFFF" stop-opacity="0.25"/>
<stop offset="1" stop-color="#82FFFF" stop-opacity="0"/>
</linearGradient>
<linearGradient id="paint4_linear_78_1095" x1="141.493" y1="269.526" x2="15.8623" y2="269.526" gradientUnits="userSpaceOnUse">
<stop stop-color="#589FC4"/>
<stop offset="1" stop-color="#589FC4" stop-opacity="0"/>
</linearGradient>
<linearGradient id="paint5_linear_78_1095" x1="148.631" y1="322.277" x2="7.29655" y2="322.277" gradientUnits="userSpaceOnUse">
<stop stop-color="#4735AD"/>
<stop offset="1" stop-color="#4735AD" stop-opacity="0"/>
</linearGradient>
<linearGradient id="paint6_linear_78_1095" x1="148.631" y1="376.26" x2="7.29655" y2="376.26" gradientUnits="userSpaceOnUse">
<stop stop-color="#9B4AB0"/>
<stop offset="1" stop-color="#9B4AB0" stop-opacity="0"/>
</linearGradient>
</defs>
</svg>
