<svg viewBox="0 0 35 35" fill="none" xmlns="http://www.w3.org/2000/svg">
<path fill-rule="evenodd" clip-rule="evenodd" d="M12.3959 3.64616C12.3959 3.45277 12.4727 3.26731 12.6095 3.13056C12.7462 2.99382 12.9317 2.91699 13.1251 2.91699H21.8751C22.0685 2.91699 22.2539 2.99382 22.3907 3.13056C22.5274 3.26731 22.6042 3.45277 22.6042 3.64616V6.56283C22.6042 6.75621 22.5274 6.94168 22.3907 7.07842C22.2539 7.21517 22.0685 7.29199 21.8751 7.29199H20.4167V10.2087C21.7705 10.2087 23.0687 10.7464 24.0259 11.7036C24.9832 12.6609 25.5209 13.9591 25.5209 15.3128V29.8962C25.5209 30.4763 25.2904 31.0327 24.8802 31.443C24.47 31.8532 23.9136 32.0837 23.3334 32.0837H11.6667C11.0866 32.0837 10.5302 31.8532 10.12 31.443C9.70972 31.0327 9.47925 30.4763 9.47925 29.8962V15.3128C9.47925 13.9591 10.017 12.6609 10.9742 11.7036C11.9314 10.7464 13.2297 10.2087 14.5834 10.2087V7.29199H13.1251C12.9317 7.29199 12.7462 7.21517 12.6095 7.07842C12.4727 6.94168 12.3959 6.75621 12.3959 6.56283V3.64616ZM16.0417 7.29199H18.9584V10.9378C18.9584 11.1312 19.0352 11.3167 19.172 11.4534C19.3087 11.5902 19.4942 11.667 19.6876 11.667H20.4167C21.2572 11.6671 22.0717 11.9574 22.7228 12.4889C23.3738 13.0203 23.8213 13.7603 23.9897 14.5837H11.0105C11.1788 13.7603 11.6264 13.0203 12.2774 12.4889C12.9284 11.9574 13.743 11.6671 14.5834 11.667H15.3126C15.506 11.667 15.6914 11.5902 15.8282 11.4534C15.9649 11.3167 16.0417 11.1312 16.0417 10.9378V7.29199ZM10.9376 16.042V29.8962C10.9376 30.0895 11.0144 30.275 11.1511 30.4118C11.2879 30.5485 11.4734 30.6253 11.6667 30.6253H23.3334C23.5268 30.6253 23.7123 30.5485 23.849 30.4118C23.9858 30.275 24.0626 30.0895 24.0626 29.8962V16.042H10.9376ZM13.8542 4.37533V5.83366H21.1459V4.37533H13.8542ZM14.9217 21.7514L16.469 23.2972L14.9225 24.8445L14.4062 24.3282L13.3752 25.36L13.8914 25.8755L14.9225 26.9073L15.438 27.4221L16.469 26.3911L15.9535 25.8755L17.5001 24.329L19.0466 25.8755L18.5311 26.3911L19.5622 27.4228L21.625 25.36L20.5939 24.329L20.0784 24.8445L18.5311 23.2979L20.0784 21.7506L20.5939 22.2662L21.625 21.2344L19.5622 19.1723L18.5311 20.2033L19.0474 20.7196L17.5001 22.2669L15.9535 20.7196L16.469 20.2041L15.438 19.173L14.9217 19.6886L13.8907 20.7196L13.3752 21.2351L14.4062 22.2662L14.9217 21.7506V21.7514Z" fill="white"/>
</svg>
