<svg viewBox="0 0 56 56" fill="none" xmlns="http://www.w3.org/2000/svg">
<path d="M49.7701 30.122C49.9801 33.7387 48.3235 37.2154 45.3601 39.3387L47.1568 42.8154C47.6935 43.8654 47.7635 45.102 47.2968 46.1987C46.8535 47.2954 45.9435 48.1587 44.8235 48.532L42.9801 49.1154C42.2126 49.3739 41.3839 49.3895 40.6073 49.1598C39.8306 48.9301 39.1436 48.4665 38.6401 47.832L33.6935 41.9987C31.6168 41.6487 29.6568 40.762 28.0001 39.432C26.8335 39.782 25.6668 39.9687 24.5001 39.9687C22.4468 39.9687 20.3935 39.3387 18.6668 38.1254C17.4301 38.4987 16.1701 38.662 14.8868 38.6387C13.0435 38.662 11.2235 38.2887 9.52013 37.5887C7.88059 36.8572 6.47965 35.6795 5.47712 34.1902C4.47459 32.7008 3.91082 30.9597 3.85013 29.1654C3.66347 27.4854 3.94347 25.782 4.6668 24.242C3.99013 22.492 3.92013 20.5787 4.50347 18.8054C5.3668 16.5887 7.00013 14.7454 9.03013 13.5787C10.3835 9.63537 14.1868 6.9987 18.3635 7.2787C22.0968 3.7787 27.8135 3.40537 31.9668 6.41537C32.9468 6.1587 33.9735 6.0187 35.0001 6.0187C38.1735 5.9487 41.1835 7.3487 43.1668 9.84537C47.9268 11.082 51.3335 15.3287 51.5201 20.2754C51.6368 22.8654 50.9368 25.4087 49.5135 27.5787C49.6768 28.4187 49.7701 29.2587 49.7701 30.122ZM38.1035 26.832C39.4335 26.9954 40.4835 27.9987 40.4835 29.3287C40.4835 29.9475 40.2376 30.541 39.8 30.9786C39.3625 31.4162 38.769 31.662 38.1501 31.662H36.6801C35.9335 33.762 34.6268 35.6054 32.9001 37.0054C33.4835 37.2154 34.0901 37.332 34.6968 37.4954C46.6668 37.332 45.2668 30.0287 45.2668 29.912C45.2049 28.3093 44.5088 26.7967 43.3317 25.7071C42.1546 24.6176 40.5929 24.0402 38.9901 24.102C38.3713 24.102 37.7778 23.8562 37.3402 23.4186C36.9026 22.981 36.6568 22.3875 36.6568 21.7687C36.6568 21.1499 36.9026 20.5564 37.3402 20.1188C37.7778 19.6812 38.3713 19.4354 38.9901 19.4354C41.8601 19.5054 44.6135 20.5787 46.7601 22.4687C46.8768 21.792 46.9468 21.092 46.9468 20.392C46.8068 17.4987 45.5001 14.9787 40.2501 14.4887C37.3335 7.58204 29.9835 11.4087 29.9835 13.5554C29.9135 14.092 30.4735 15.2354 30.5668 15.3054C31.1856 15.3054 31.7791 15.5512 32.2167 15.9888C32.6543 16.4264 32.9001 17.0199 32.9001 17.6387C32.9001 18.922 31.8501 19.972 30.5668 19.972C29.3301 19.9254 28.1635 19.4587 27.2301 18.6654C26.1101 19.3887 24.8268 19.832 23.4968 19.972C22.1668 20.0887 21.0701 19.1554 21.0001 17.872C20.9571 17.5672 20.9769 17.2569 21.0582 16.96C21.1395 16.6631 21.2807 16.386 21.4729 16.1456C21.6652 15.9053 21.9046 15.7067 22.1764 15.5622C22.4482 15.4177 22.7467 15.3303 23.0535 15.3054C23.4268 15.2587 25.2468 14.9787 25.2468 13.5087C25.2468 11.9687 25.8301 10.4987 26.8335 9.33204C24.6868 8.7487 22.3768 9.5187 20.0435 12.342C15.7501 11.6654 14.0001 12.2487 12.7168 16.7987C10.5001 17.8954 9.33347 18.6654 8.82013 20.9987C11.3401 20.4854 13.9301 20.6954 16.3335 21.582C17.5001 22.0254 18.1535 23.332 17.7101 24.592C17.2668 25.8054 15.9135 26.412 14.7001 25.9687C12.9968 25.222 11.0835 25.1754 9.33347 25.8287C8.5868 26.4587 8.5868 27.7654 8.5868 28.792C8.5868 30.5187 9.45013 32.1287 10.9201 33.062C12.1568 33.692 13.5335 34.0187 14.9101 33.9954C14.5601 33.3887 14.2568 32.7587 14.0001 32.1054C13.8164 31.5059 13.8724 30.8585 14.1562 30.2994C14.4401 29.7403 14.9296 29.3131 15.522 29.1076C16.1144 28.9021 16.7633 28.9343 17.3324 29.1975C17.9015 29.4606 18.3464 29.9343 18.5735 30.5187C19.5068 33.1787 21.8868 34.9987 24.6868 35.302C27.8835 35.1387 30.7301 33.2487 32.1301 30.332C32.6668 27.112 35.2568 26.832 38.1035 26.832ZM42.7701 44.262L41.3235 41.2287L39.6668 41.602L42.0001 44.5187L42.7701 44.262ZM31.9201 24.172C31.9404 23.576 31.7317 22.9947 31.3368 22.5478C30.9419 22.1008 30.3908 21.822 29.7968 21.7687C28.1401 21.6754 26.5301 22.2354 25.2935 23.332C23.9635 24.6854 23.2635 26.552 23.3335 28.442C23.3335 29.0609 23.5793 29.6544 24.0169 30.092C24.4545 30.5295 25.048 30.7754 25.6668 30.7754C26.9968 30.7754 28.0001 29.7254 28.0001 28.442C28.0001 27.812 28.1635 27.182 28.5368 26.6687C28.8168 26.4354 29.1668 26.3187 29.5401 26.3187C30.8235 26.3887 31.9201 25.432 31.9201 24.172Z" fill="white"/>
</svg>
