<svg viewBox="0 0 53 53" fill="none" xmlns="http://www.w3.org/2000/svg">
<path d="M26.5001 38.6458C29.2605 38.6458 31.6072 37.6801 33.5402 35.7485C35.4718 33.8155 36.4376 31.4688 36.4376 28.7083C36.4376 25.9479 35.4718 23.6012 33.5402 21.6682C31.6072 19.7366 29.2605 18.7708 26.5001 18.7708C23.7397 18.7708 21.3929 19.7366 19.4599 21.6682C17.5284 23.6012 16.5626 25.9479 16.5626 28.7083C16.5626 31.4688 17.5284 33.8155 19.4599 35.7485C21.3929 37.6801 23.7397 38.6458 26.5001 38.6458ZM8.83342 46.375C7.61883 46.375 6.57944 45.9429 5.71525 45.0787C4.84958 44.213 4.41675 43.1729 4.41675 41.9583V15.4583C4.41675 14.2437 4.84958 13.2044 5.71525 12.3402C6.57944 11.4745 7.61883 11.0417 8.83342 11.0417H15.7897L18.5501 8.06042C18.9549 7.58194 19.4422 7.22272 20.012 6.98275C20.5832 6.74425 21.1817 6.625 21.8074 6.625H31.1928C31.8185 6.625 32.4169 6.74425 32.9882 6.98275C33.5579 7.22272 34.0452 7.58194 34.4501 8.06042L37.2105 11.0417H44.1668C45.3813 11.0417 46.4215 11.4745 47.2871 12.3402C48.1513 13.2044 48.5834 14.2437 48.5834 15.4583V41.9583C48.5834 43.1729 48.1513 44.213 47.2871 45.0787C46.4215 45.9429 45.3813 46.375 44.1668 46.375H8.83342Z" fill="white"/>
</svg>
