<svg viewBox="0 0 56 52" fill="none" xmlns="http://www.w3.org/2000/svg">
<path d="M25.9728 46.0531L25.9685 46.0491C18.7 39.3786 12.9072 34.0474 8.8964 29.0813C4.91965 24.1573 3 19.9529 3 15.5858C3 8.45585 8.46313 3 15.4 3C19.3516 3 23.2042 4.87748 25.712 7.83461L28 10.5327L30.288 7.83461C32.7958 4.87748 36.6484 3 40.6 3C47.5369 3 53 8.45585 53 15.5858C53 19.9529 51.0804 24.1573 47.1036 29.0813C43.0928 34.0474 37.3 39.3786 30.0315 46.0491L30.0272 46.0531L28 47.9208L25.9728 46.0531Z" stroke="white" stroke-width="6"/>
</svg>
