<svg viewBox="0 0 220 52" fill="none" xmlns="http://www.w3.org/2000/svg">
<rect x="0.71658" y="0.71658" width="218.9" height="50.9515" stroke="white" stroke-width="0.566841"/>
<rect x="2.86621" y="2.88867" width="214.266" height="46.6058" fill="white"/>
<path d="M32.1863 35.2417C31.1392 35.2417 30.1484 35.1611 29.214 35C28.2796 34.8228 27.4821 34.5811 26.8216 34.275V30.5294C27.5466 30.8677 28.3521 31.1416 29.2381 31.351C30.1242 31.5605 30.9539 31.6652 31.7272 31.6652C32.5327 31.6652 33.1368 31.6007 33.5396 31.4719C33.9584 31.3269 34.1679 31.0127 34.1679 30.5294C34.1679 30.1911 34.047 29.9253 33.8054 29.732C33.5798 29.5386 33.2174 29.3614 32.7179 29.2003C32.2346 29.0392 31.5983 28.8379 30.8089 28.5962C29.7617 28.2579 28.9321 27.8874 28.3199 27.4846C27.7077 27.0818 27.2646 26.5905 26.9908 26.0105C26.733 25.4305 26.6041 24.7217 26.6041 23.884C26.6041 22.3535 27.1438 21.1936 28.2232 20.4042C29.3187 19.5987 30.9378 19.1959 33.0804 19.1959C33.9343 19.1959 34.8123 19.2684 35.7144 19.4134C36.6327 19.5584 37.3738 19.7195 37.9377 19.8967V23.6665C37.1805 23.3604 36.4555 23.1429 35.7628 23.014C35.07 22.8851 34.4176 22.8207 33.8054 22.8207C33.0965 22.8207 32.4924 22.8771 31.993 22.9899C31.4936 23.1026 31.2439 23.3926 31.2439 23.8598C31.2439 24.2626 31.4533 24.5606 31.8722 24.7539C32.3071 24.9311 33.0724 25.1647 34.1679 25.4547C35.4406 25.793 36.4072 26.2038 37.0677 26.6871C37.7443 27.1704 38.2035 27.7343 38.4451 28.3787C38.6868 29.007 38.8076 29.7239 38.8076 30.5294C38.8076 31.9471 38.2599 33.0909 37.1644 33.9609C36.0689 34.8147 34.4095 35.2417 32.1863 35.2417ZM40.4916 35V19.4376H45.0347V24.9231L49.7469 19.4376H54.9183L49.4328 25.8172L55.3049 35H50.4719L46.6296 28.717L45.0347 30.5053V35H40.4916ZM56.9873 35V19.4376H61.5303V35H56.9873ZM63.7129 35V19.4376H71.7358C73.0085 19.4376 74.0557 19.6953 74.8773 20.2108C75.715 20.7103 76.3353 21.3949 76.738 22.2649C77.1408 23.1348 77.3422 24.1015 77.3422 25.1647C77.3422 26.2602 77.1086 27.2349 76.6414 28.0887C76.1742 28.9426 75.5137 29.6111 74.6598 30.0944C73.806 30.5778 72.7991 30.8194 71.6392 30.8194H68.256V35H63.7129ZM68.256 27.3396H70.6001C71.3089 27.3396 71.8325 27.1382 72.1708 26.7355C72.5252 26.3327 72.7024 25.8091 72.7024 25.1647C72.7024 24.472 72.5413 23.9242 72.2191 23.5215C71.8969 23.1187 71.3975 22.9174 70.7209 22.9174H68.256V27.3396ZM86.9197 35V22.8207H82.5458V19.4376H95.8367V22.8207H91.4628V35H86.9197ZM104.266 35.2417C101.688 35.2417 99.7146 34.6134 98.3452 33.3568C96.9919 32.1002 96.3153 30.0703 96.3153 27.2671C96.3153 25.3339 96.6214 23.7793 97.2336 22.6032C97.8458 21.4111 98.7399 20.5492 99.9159 20.0175C101.108 19.4698 102.558 19.1959 104.266 19.1959C105.973 19.1959 107.415 19.4698 108.591 20.0175C109.783 20.5492 110.686 21.4111 111.298 22.6032C111.91 23.7793 112.216 25.3339 112.216 27.2671C112.216 30.0703 111.531 32.1002 110.162 33.3568C108.793 34.6134 106.827 35.2417 104.266 35.2417ZM104.266 31.3752C105.426 31.3752 106.263 31.053 106.779 30.4086C107.311 29.7481 107.576 28.7009 107.576 27.2671C107.576 25.7366 107.311 24.6573 106.779 24.029C106.263 23.3846 105.426 23.0623 104.266 23.0623C103.106 23.0623 102.26 23.3846 101.728 24.029C101.213 24.6573 100.955 25.7366 100.955 27.2671C100.955 28.7009 101.213 29.7481 101.728 30.4086C102.26 31.053 103.106 31.3752 104.266 31.3752ZM123.962 35.2417C122.915 35.2417 121.925 35.1611 120.99 35C120.056 34.8228 119.258 34.5811 118.598 34.275V30.5294C119.323 30.8677 120.128 31.1416 121.014 31.351C121.9 31.5605 122.73 31.6652 123.503 31.6652C124.309 31.6652 124.913 31.6007 125.316 31.4719C125.735 31.3269 125.944 31.0127 125.944 30.5294C125.944 30.1911 125.823 29.9253 125.582 29.732C125.356 29.5386 124.994 29.3614 124.494 29.2003C124.011 29.0392 123.374 28.8379 122.585 28.5962C121.538 28.2579 120.708 27.8874 120.096 27.4846C119.484 27.0818 119.041 26.5905 118.767 26.0105C118.509 25.4305 118.38 24.7217 118.38 23.884C118.38 22.3535 118.92 21.1936 119.999 20.4042C121.095 19.5987 122.714 19.1959 124.857 19.1959C125.71 19.1959 126.588 19.2684 127.491 19.4134C128.409 19.5584 129.15 19.7195 129.714 19.8967V23.6665C128.957 23.3604 128.232 23.1429 127.539 23.014C126.846 22.8851 126.194 22.8207 125.582 22.8207C124.873 22.8207 124.269 22.8771 123.769 22.9899C123.27 23.1026 123.02 23.3926 123.02 23.8598C123.02 24.2626 123.229 24.5606 123.648 24.7539C124.083 24.9311 124.849 25.1647 125.944 25.4547C127.217 25.793 128.183 26.2038 128.844 26.6871C129.52 27.1704 129.98 27.7343 130.221 28.3787C130.463 29.007 130.584 29.7239 130.584 30.5294C130.584 31.9471 130.036 33.0909 128.941 33.9609C127.845 34.8147 126.186 35.2417 123.962 35.2417ZM135.675 35V22.8207H131.301V19.4376H144.592V22.8207H140.218V35H135.675ZM143.254 35L149.222 19.4376H154.031L160 35H155.264L153.959 31.6894H149.271L147.99 35H143.254ZM149.875 28.427H153.355L151.615 23.8598L149.875 28.427ZM163.05 35V22.8207H158.676V19.4376H171.967V22.8207H167.593V35H163.05ZM178.264 35.2417C177.216 35.2417 176.226 35.1611 175.291 35C174.357 34.8228 173.559 34.5811 172.899 34.275V30.5294C173.624 30.8677 174.429 31.1416 175.315 31.351C176.201 31.5605 177.031 31.6652 177.804 31.6652C178.61 31.6652 179.214 31.6007 179.617 31.4719C180.036 31.3269 180.245 31.0127 180.245 30.5294C180.245 30.1911 180.124 29.9253 179.883 29.732C179.657 29.5386 179.295 29.3614 178.795 29.2003C178.312 29.0392 177.676 28.8379 176.886 28.5962C175.839 28.2579 175.009 27.8874 174.397 27.4846C173.785 27.0818 173.342 26.5905 173.068 26.0105C172.81 25.4305 172.681 24.7217 172.681 23.884C172.681 22.3535 173.221 21.1936 174.3 20.4042C175.396 19.5987 177.015 19.1959 179.158 19.1959C180.012 19.1959 180.89 19.2684 181.792 19.4134C182.71 19.5584 183.451 19.7195 184.015 19.8967V23.6665C183.258 23.3604 182.533 23.1429 181.84 23.014C181.147 22.8851 180.495 22.8207 179.883 22.8207C179.174 22.8207 178.57 22.8771 178.07 22.9899C177.571 23.1026 177.321 23.3926 177.321 23.8598C177.321 24.2626 177.531 24.5606 177.949 24.7539C178.384 24.9311 179.15 25.1647 180.245 25.4547C181.518 25.793 182.484 26.2038 183.145 26.6871C183.822 27.1704 184.281 27.7343 184.522 28.3787C184.764 29.007 184.885 29.7239 184.885 30.5294C184.885 31.9471 184.337 33.0909 183.242 33.9609C182.146 34.8147 180.487 35.2417 178.264 35.2417Z" fill="#255052"/>
</svg>
