<svg viewBox="0 0 43 58" fill="none" xmlns="http://www.w3.org/2000/svg">
<path d="M21.5001 36.417C19.0348 36.417 16.9393 35.5541 15.2136 33.8284C13.4879 32.1028 12.6251 30.0073 12.6251 27.542V9.79199C12.6251 7.32671 13.4879 5.23123 15.2136 3.50553C16.9393 1.77984 19.0348 0.916992 21.5001 0.916992C23.9654 0.916992 26.0608 1.77984 27.7865 3.50553C29.5122 5.23123 30.3751 7.32671 30.3751 9.79199V27.542C30.3751 30.0073 29.5122 32.1028 27.7865 33.8284C26.0608 35.5541 23.9654 36.417 21.5001 36.417ZM18.5417 57.1253V48.0284C13.414 47.3382 9.17369 45.0455 5.82091 41.1503C2.46814 37.2552 0.791748 32.7191 0.791748 27.542H6.70842C6.70842 31.6344 8.1511 35.1222 11.0365 38.0056C13.9198 40.891 17.4077 42.3337 21.5001 42.3337C25.5924 42.3337 29.0813 40.891 31.9667 38.0056C34.8501 35.1222 36.2917 31.6344 36.2917 27.542H42.2084C42.2084 32.7191 40.532 37.2552 37.1792 41.1503C33.8265 45.0455 29.5862 47.3382 24.4584 48.0284V57.1253H18.5417Z" fill="white"/>
</svg>
