<svg viewBox="0 0 260 62" fill="none" xmlns="http://www.w3.org/2000/svg">
<rect x="0.665088" y="0.665088" width="258.67" height="60.2083" stroke="white" stroke-width="0.669824"/>
<rect x="3.20532" y="3.23145" width="253.194" height="55.0731" fill="white"/>
<path d="M84.3735 40.7178V22.328H94.4822C96.3478 22.328 97.7661 22.7658 98.737 23.6415C99.7078 24.5172 100.193 25.7737 100.193 27.4109C100.193 28.3627 100.012 29.1623 99.6507 29.8095C99.3081 30.4568 98.8512 30.9708 98.2801 31.3515C99.0606 31.6561 99.6793 32.1035 100.136 32.6936C100.612 33.2648 100.85 34.1214 100.85 35.2636C100.85 36.996 100.317 38.3381 99.251 39.29C98.1849 40.2418 96.6714 40.7178 94.7106 40.7178H84.3735ZM89.542 29.6667H93.0258C94.3394 29.6667 94.9962 29.0766 94.9962 27.8963C94.9962 27.3061 94.8343 26.8588 94.5107 26.5542C94.2061 26.2496 93.6636 26.0973 92.883 26.0973H89.542V29.6667ZM89.542 36.977H93.2543C93.9777 36.977 94.5107 36.8247 94.8534 36.5201C95.1961 36.2155 95.3674 35.711 95.3674 35.0066C95.3674 34.4165 95.1961 33.9691 94.8534 33.6645C94.5107 33.3599 93.9396 33.2076 93.14 33.2076H89.542V36.977ZM106.289 40.7178V22.328H120.224V26.44H111.657V29.4383H119.167V33.6074H111.657V36.6058H120.224V40.7178H106.289ZM134.84 41.0033C131.566 41.0033 129.072 40.2038 127.359 38.6047C125.645 36.9865 124.789 34.683 124.789 31.6942C124.789 28.6102 125.674 26.2306 127.444 24.5553C129.215 22.88 131.804 22.0424 135.211 22.0424C136.354 22.0424 137.382 22.109 138.295 22.2423C139.228 22.3755 140.104 22.5754 140.923 22.842V27.4394C140.085 27.1158 139.219 26.8969 138.324 26.7826C137.429 26.6684 136.515 26.6113 135.583 26.6113C133.812 26.6113 132.48 27.0111 131.585 27.8106C130.709 28.6102 130.271 29.9047 130.271 31.6942C130.271 33.3695 130.652 34.5783 131.414 35.3208C132.194 36.0632 133.336 36.4344 134.84 36.4344C135.335 36.4344 135.802 36.4059 136.239 36.3488C136.677 36.2726 137.087 36.1774 137.467 36.0632V33.379H133.812V30.0665H141.951V39.3185C141.246 39.7564 140.304 40.1467 139.124 40.4893C137.962 40.832 136.534 41.0033 134.84 41.0033ZM147.387 40.7178V22.328H152.755V40.7178H147.387ZM158.761 40.7178V22.328H163.33L170.269 32.0654V22.328H175.637V40.7178H171.04L164.129 31.0089V40.7178H158.761Z" fill="#255052"/>
</svg>
