<svg width="260" height="62" viewBox="0 0 260 62" fill="none" xmlns="http://www.w3.org/2000/svg">
<rect x="0.665088" y="0.665088" width="258.67" height="60.2083" stroke="white" stroke-width="0.669824"/>
<path d="M83.6047 40.7178V22.328H86.7173V38.3191H96.1406V40.7178H83.6047ZM102.034 40.7178V22.328H114.856V24.7552H105.147V30.3235H113.799V32.7222H105.147V38.3191H114.856V40.7178H102.034ZM120.618 40.7178L127.643 22.328H131.127L138.094 40.7178H134.896L133.069 35.9775H125.673L123.845 40.7178H120.618ZM126.158 33.5789H132.555L129.356 25.155L126.158 33.5789ZM147.774 40.7178L140.749 22.328H143.976L149.487 37.3768L154.998 22.328H158.225L151.257 40.7178H147.774ZM164.294 40.7178V22.328H177.116V24.7552H167.407V30.3235H176.059V32.7222H167.407V38.3191H177.116V40.7178H164.294Z" fill="white"/>
</svg>
