<svg viewBox="0 0 236 67" fill="none" xmlns="http://www.w3.org/2000/svg">
<rect x="0.696243" y="-5.30376" width="234.608" height="71.6075" stroke="white" stroke-width="0.607515"/>
<rect x="3" y="-2.33789" width="229.641" height="65.675" fill="white"/>
<path d="M81.6105 45V21.816H99.1785V27H88.3785V30.78H97.8465V36.036H88.3785V39.816H99.1785V45H81.6105ZM105.653 45V21.816H111.413L120.161 34.092V21.816H126.929V45H121.133L112.421 32.76V45H105.653ZM134.477 45V21.816H144.845C147.221 21.816 149.249 22.212 150.929 23.004C152.609 23.772 153.893 25.02 154.781 26.748C155.669 28.452 156.113 30.72 156.113 33.552C156.113 37.536 155.141 40.44 153.197 42.264C151.253 44.088 148.469 45 144.845 45H134.477ZM141.245 39.816H143.981C145.109 39.816 146.057 39.66 146.825 39.348C147.593 39.012 148.181 38.4 148.589 37.512C148.997 36.6 149.201 35.28 149.201 33.552C149.201 31.824 149.009 30.492 148.625 29.556C148.265 28.596 147.701 27.936 146.933 27.576C146.165 27.192 145.181 27 143.981 27H141.245V39.816Z" fill="#090F1B"/>
</svg>
