<svg viewBox="0 0 126 26" fill="none" xmlns="http://www.w3.org/2000/svg">
  <path d="M15.336 9.296V5.864H8.64V1.76L4.512 2.936V5.864H0.792V9.296H4.512V15.752C4.512 18.872 6.864 20.24 10.512 20.24C12.408 20.24 13.968 20.12 15.336 19.88V16.568C13.68 16.808 12.96 16.808 11.664 16.808C9.168 16.808 8.64 16.112 8.64 13.376V9.296H15.336ZM15.6964 0.8V4.376H19.8004V0.8H15.6964ZM15.6964 5.864V20H19.8004V5.864H15.6964ZM20.3998 0.8V20H24.5038V0.8H20.3998ZM39.1494 9.296V5.864H32.4534V1.76L28.3254 2.936V5.864H24.6054V9.296H28.3254V15.752C28.3254 18.872 30.6774 20.24 34.3254 20.24C36.2214 20.24 37.7814 20.12 39.1494 19.88V16.568C37.4934 16.808 36.7734 16.808 35.4774 16.808C32.9814 16.808 32.4534 16.112 32.4534 13.376V9.296H39.1494ZM50.6698 5.624C47.6218 5.624 45.1738 6.464 43.6378 8.048V5.864H39.5098V26H43.6378V17.816C45.1738 19.424 47.6218 20.24 50.6698 20.24C55.2298 20.24 59.0938 18.344 59.0938 12.944C59.0938 7.544 55.2298 5.624 50.6698 5.624ZM49.3018 16.808C45.6298 16.808 43.6378 15.728 43.6378 12.944C43.6378 10.136 45.6298 9.056 49.3018 9.056C52.9738 9.056 54.9898 10.136 54.9898 12.944C54.9898 15.728 52.9738 16.808 49.3018 16.808ZM70.6824 5.624C68.0424 5.624 65.5464 6.368 63.4344 8.264V5.864H59.3304V20H63.4344V11.528C65.9304 9.584 68.5704 9.056 70.8744 9.056C72.0744 9.056 73.1544 9.2 74.4984 9.536V6.104C73.5384 5.864 72.3624 5.624 70.6824 5.624ZM83.3593 20.24C89.1913 20.24 93.1513 18.128 93.1513 12.944C93.1513 7.736 89.1913 5.624 83.3593 5.624C77.5033 5.624 73.5673 7.736 73.5673 12.944C73.5673 18.128 77.5033 20.24 83.3593 20.24ZM83.3593 16.808C79.5433 16.808 77.6713 15.872 77.6713 12.944C77.6713 9.992 79.5433 9.056 83.3593 9.056C87.1513 9.056 89.0233 9.992 89.0233 12.944C89.0233 15.872 87.1513 16.808 83.3593 16.808ZM102.805 20.24C108.637 20.24 112.597 18.128 112.597 12.944C112.597 7.736 108.637 5.624 102.805 5.624C96.9489 5.624 93.0129 7.736 93.0129 12.944C93.0129 18.128 96.9489 20.24 102.805 20.24ZM102.805 16.808C98.9889 16.808 97.1169 15.872 97.1169 12.944C97.1169 9.992 98.9889 9.056 102.805 9.056C106.597 9.056 108.469 9.992 108.469 12.944C108.469 15.872 106.597 16.808 102.805 16.808ZM122.674 3.584C123.73 3.584 124.69 3.632 125.626 3.704V0.8C123.538 0.559999 122.794 0.559999 121.378 0.559999C117.25 0.559999 115.522 1.928 115.522 4.808V5.864H111.802V9.296H115.522V20H119.65V9.296H125.626V5.864H119.65C119.722 4.088 120.322 3.584 122.674 3.584Z" fill="white"/>
</svg>
