<svg width="162" height="39" viewBox="0 0 162 39" fill="none" xmlns="http://www.w3.org/2000/svg">
<rect x="0.79187" y="0.79187" width="160.75" height="37.4163" stroke="white" stroke-width="0.41626"/>
<rect x="2.37061" y="2.38672" width="157.346" height="34.225" fill="white"/>
<path d="M13.447 25.7959V14.3676H16.6945L19.5338 20.1705L22.3554 14.3676H25.5851V25.7959H22.2489V20.0817L20.4211 23.8439H18.6288L16.7832 20.0817V25.7959H13.447ZM29.3191 25.7959V14.3676H32.6553V25.7959H29.3191ZM36.3876 25.7959V14.3676H39.2269L43.5392 20.4189V14.3676H46.8754V25.7959H44.0183L39.7238 19.7623V25.7959H36.3876ZM50.596 25.7959V14.3676H55.7068C56.8781 14.3676 57.8777 14.5628 58.7059 14.9532C59.534 15.3318 60.1669 15.947 60.6047 16.7988C61.0424 17.6387 61.2613 18.7567 61.2613 20.1527C61.2613 22.1166 60.7821 23.5481 59.8239 24.4472C58.8656 25.3463 57.4932 25.7959 55.7068 25.7959H50.596ZM53.9323 23.2405H55.2809C55.837 23.2405 56.3043 23.1636 56.6828 23.0098C57.0614 22.8442 57.3513 22.5425 57.5524 22.1048C57.7535 21.6552 57.8541 21.0045 57.8541 20.1527C57.8541 19.3009 57.7594 18.6443 57.5701 18.1829C57.3927 17.7097 57.1147 17.3844 56.7361 17.2069C56.3575 17.0176 55.8725 16.923 55.2809 16.923H53.9323V23.2405ZM64.6312 25.7959V14.3676H73.2201V16.852H67.9674V18.8218H72.5458V21.3417H67.9674V25.7959H64.6312ZM81.5639 25.9734C80.4991 25.9734 79.5586 25.8018 78.7423 25.4587C77.9378 25.1038 77.3049 24.5892 76.8435 23.9148C76.3821 23.2287 76.1514 22.3887 76.1514 21.3949V14.3676H79.4876V21.04C79.4876 22.436 80.1797 23.134 81.5639 23.134C82.2264 23.134 82.7351 22.9625 83.09 22.6194C83.4449 22.2763 83.6224 21.7499 83.6224 21.04V14.3676H86.9586V21.3949C86.9586 22.3887 86.7279 23.2287 86.2665 23.9148C85.8169 24.5892 85.184 25.1038 84.3677 25.4587C83.5632 25.8018 82.6286 25.9734 81.5639 25.9734ZM90.6045 25.7959V14.3676H93.9407V23.2405H99.087V25.7959H90.6045ZM102.109 25.7959V14.3676H104.949L109.261 20.4189V14.3676H112.597V25.7959H109.74L105.446 19.7623V25.7959H102.109ZM116.318 25.7959V14.3676H124.978V16.923H119.654V18.7863H124.321V21.3772H119.654V23.2405H124.978V25.7959H116.318ZM131.914 25.9734C131.145 25.9734 130.417 25.9142 129.731 25.7959C129.045 25.6658 128.459 25.4883 127.974 25.2635V22.5129C128.507 22.7614 129.098 22.9625 129.749 23.1163C130.4 23.2701 131.009 23.347 131.577 23.347C132.168 23.347 132.612 23.2997 132.908 23.205C133.215 23.0985 133.369 22.8678 133.369 22.5129C133.369 22.2645 133.28 22.0693 133.103 21.9273C132.937 21.7853 132.671 21.6552 132.304 21.5369C131.949 21.4186 131.482 21.2707 130.902 21.0933C130.133 20.8448 129.524 20.5727 129.075 20.277C128.625 19.9812 128.3 19.6204 128.098 19.1945C127.909 18.7686 127.815 18.248 127.815 17.6328C127.815 16.5089 128.211 15.6571 129.004 15.0774C129.808 14.4859 130.997 14.1901 132.57 14.1901C133.197 14.1901 133.842 14.2434 134.505 14.3499C135.179 14.4563 135.723 14.5746 136.137 14.7048V17.4731C135.581 17.2483 135.049 17.0886 134.54 16.994C134.031 16.8993 133.552 16.852 133.103 16.852C132.582 16.852 132.139 16.8934 131.772 16.9762C131.405 17.059 131.222 17.272 131.222 17.6151C131.222 17.9108 131.376 18.1297 131.683 18.2717C132.003 18.4018 132.565 18.5734 133.369 18.7863C134.304 19.0347 135.013 19.3364 135.498 19.6913C135.995 20.0463 136.333 20.4603 136.51 20.9335C136.687 21.3949 136.776 21.9214 136.776 22.5129C136.776 23.554 136.374 24.394 135.569 25.0328C134.765 25.6598 133.546 25.9734 131.914 25.9734ZM143.713 25.9734C142.944 25.9734 142.217 25.9142 141.531 25.7959C140.844 25.6658 140.259 25.4883 139.774 25.2635V22.5129C140.306 22.7614 140.898 22.9625 141.548 23.1163C142.199 23.2701 142.808 23.347 143.376 23.347C143.968 23.347 144.411 23.2997 144.707 23.205C145.015 23.0985 145.169 22.8678 145.169 22.5129C145.169 22.2645 145.08 22.0693 144.902 21.9273C144.737 21.7853 144.471 21.6552 144.104 21.5369C143.749 21.4186 143.282 21.2707 142.702 21.0933C141.933 20.8448 141.324 20.5727 140.874 20.277C140.425 19.9812 140.099 19.6204 139.898 19.1945C139.709 18.7686 139.614 18.248 139.614 17.6328C139.614 16.5089 140.01 15.6571 140.803 15.0774C141.608 14.4859 142.797 14.1901 144.37 14.1901C144.997 14.1901 145.642 14.2434 146.304 14.3499C146.979 14.4563 147.523 14.5746 147.937 14.7048V17.4731C147.381 17.2483 146.848 17.0886 146.34 16.994C145.831 16.8993 145.352 16.852 144.902 16.852C144.382 16.852 143.938 16.8934 143.571 16.9762C143.205 17.059 143.021 17.272 143.021 17.6151C143.021 17.9108 143.175 18.1297 143.483 18.2717C143.802 18.4018 144.364 18.5734 145.169 18.7863C146.103 19.0347 146.813 19.3364 147.298 19.6913C147.795 20.0463 148.132 20.4603 148.31 20.9335C148.487 21.3949 148.576 21.9214 148.576 22.5129C148.576 23.554 148.174 24.394 147.369 25.0328C146.565 25.6598 145.346 25.9734 143.713 25.9734Z" fill="#255052"/>
</svg>
