<svg width="236" height="67" viewBox="0 0 236 67" fill="none" xmlns="http://www.w3.org/2000/svg">
<rect x="0.696243" y="-5.30376" width="234.608" height="71.6075" stroke="white" stroke-width="0.607515"/>
<rect x="3" y="-2.33789" width="229.641" height="65.675" fill="white"/>
<path d="M69.62 45V21.816H81.572C83.468 21.816 85.028 22.2 86.252 22.968C87.5 23.712 88.424 24.732 89.024 26.028C89.624 27.324 89.924 28.764 89.924 30.348C89.924 31.98 89.576 33.432 88.88 34.704C88.184 35.976 87.2 36.972 85.928 37.692C84.656 38.412 83.156 38.772 81.428 38.772H76.388V45H69.62ZM76.388 33.588H79.88C80.936 33.588 81.716 33.288 82.22 32.688C82.748 32.088 83.012 31.308 83.012 30.348C83.012 29.316 82.772 28.5 82.292 27.9C81.812 27.3 81.068 27 80.06 27H76.388V33.588ZM96.0533 45V21.816H102.821V39.816H113.261V45H96.0533ZM118.673 45L127.565 21.816H134.729L143.621 45H136.565L134.621 40.068H127.637L125.729 45H118.673ZM128.537 35.208H133.721L131.129 28.404L128.537 35.208ZM152.896 45V36.504L144.544 21.816H151.6L156.28 30.564L160.96 21.816H168.016L159.664 36.504V45H152.896Z" fill="#090F1B"/>
</svg>
