<svg width="808" height="178" viewBox="0 0 808 178" fill="none" xmlns="http://www.w3.org/2000/svg">
<path d="M2.24 35V14.392H16.16V16.472H4.864V23.672H15.008V25.72H4.864V32.952H16.16V35H2.24ZM17.905 35L23.665 27.288L18.097 19.832H20.945L25.073 25.496L29.233 19.832H32.049L26.545 27.288L32.273 35H29.425L25.073 29.08L20.753 35H17.905ZM35.8025 41.912V19.832H38.0425L38.2345 21.432C38.9385 20.7707 39.7065 20.2907 40.5385 19.992C41.3918 19.672 42.3838 19.512 43.5145 19.512C45.6478 19.512 47.3225 20.1093 48.5385 21.304C49.7545 22.4773 50.3625 24.44 50.3625 27.192C50.3625 29.9227 49.7545 31.96 48.5385 33.304C47.3225 34.648 45.6372 35.32 43.4825 35.32C41.4985 35.32 39.8132 34.84 38.4265 33.88V41.912H35.8025ZM42.7785 33.208C44.4852 33.208 45.7332 32.728 46.5225 31.768C47.3332 30.7867 47.7385 29.2613 47.7385 27.192C47.7385 25.208 47.3652 23.7893 46.6185 22.936C45.8718 22.0613 44.6132 21.624 42.8425 21.624C41.9678 21.624 41.1572 21.7733 40.4105 22.072C39.6638 22.3707 39.0025 22.8293 38.4265 23.448V31.704C38.9598 32.1733 39.5892 32.5467 40.3145 32.824C41.0398 33.08 41.8612 33.208 42.7785 33.208ZM61.6648 35.32C58.9554 35.32 56.9288 34.6693 55.5848 33.368C54.2408 32.0667 53.5688 30.0613 53.5688 27.352C53.5688 24.92 54.1448 23.0107 55.2968 21.624C56.4701 20.216 58.3154 19.512 60.8328 19.512C62.3261 19.512 63.5528 19.7893 64.5128 20.344C65.4941 20.8773 66.2194 21.624 66.6888 22.584C67.1794 23.5227 67.4248 24.5893 67.4248 25.784V28.632H56.1927C56.2781 29.784 56.5234 30.6907 56.9288 31.352C57.3554 32.0133 57.9848 32.4933 58.8168 32.792C59.6701 33.0693 60.7901 33.208 62.1768 33.208C63.7341 33.208 65.1634 32.9413 66.4648 32.408V34.456C65.8034 34.7333 65.0568 34.9467 64.2248 35.096C63.4141 35.2453 62.5608 35.32 61.6648 35.32ZM56.1927 26.744H65.0888V25.496C65.0888 24.2587 64.7581 23.3093 64.0968 22.648C63.4568 21.9653 62.3901 21.624 60.8968 21.624C59.0834 21.624 57.8461 22.0507 57.1848 22.904C56.5234 23.7573 56.1927 25.0373 56.1927 26.744ZM71.2713 35V19.832H73.6393L73.8313 21.752C74.5779 21.2613 75.4526 20.8133 76.4553 20.408C77.4793 20.0027 78.4819 19.704 79.4633 19.512V21.56C78.8659 21.688 78.2153 21.8693 77.5113 22.104C76.8073 22.3173 76.1353 22.5627 75.4953 22.84C74.8553 23.1173 74.3219 23.4053 73.8953 23.704V35H71.2713ZM83.4613 16.28V13.88H86.3733V16.28H83.4613ZM83.7173 35V21.912H81.3813L81.6373 19.832H86.3413V35H83.7173ZM98.321 35.32C95.6117 35.32 93.585 34.6693 92.241 33.368C90.897 32.0667 90.225 30.0613 90.225 27.352C90.225 24.92 90.801 23.0107 91.953 21.624C93.1263 20.216 94.9717 19.512 97.489 19.512C98.9823 19.512 100.209 19.7893 101.169 20.344C102.15 20.8773 102.876 21.624 103.345 22.584C103.836 23.5227 104.081 24.5893 104.081 25.784V28.632H92.849C92.9343 29.784 93.1797 30.6907 93.585 31.352C94.0117 32.0133 94.641 32.4933 95.473 32.792C96.3263 33.0693 97.4463 33.208 98.833 33.208C100.39 33.208 101.82 32.9413 103.121 32.408V34.456C102.46 34.7333 101.713 34.9467 100.881 35.096C100.07 35.2453 99.217 35.32 98.321 35.32ZM92.849 26.744H101.745V25.496C101.745 24.2587 101.414 23.3093 100.753 22.648C100.113 21.9653 99.0463 21.624 97.553 21.624C95.7397 21.624 94.5023 22.0507 93.841 22.904C93.1797 23.7573 92.849 25.0373 92.849 26.744ZM107.928 35V19.832H110.296L110.456 21.56C111.181 20.9627 112.024 20.472 112.984 20.088C113.965 19.704 115.085 19.512 116.344 19.512C118.264 19.512 119.661 19.96 120.536 20.856C121.41 21.752 121.847 23.16 121.847 25.08V35H119.224V25.176C119.224 23.8533 118.957 22.936 118.424 22.424C117.89 21.8907 116.866 21.624 115.352 21.624C114.413 21.624 113.528 21.7947 112.696 22.136C111.864 22.4773 111.149 22.9467 110.552 23.544V35H107.928ZM132.845 35.32C130.2 35.32 128.238 34.6373 126.958 33.272C125.678 31.8853 125.038 29.9333 125.038 27.416C125.038 24.7493 125.763 22.7653 127.214 21.464C128.664 20.1627 130.616 19.512 133.07 19.512C134.072 19.512 134.904 19.5867 135.566 19.736C136.227 19.864 136.867 20.0773 137.486 20.376V22.456C136.334 21.9013 135.022 21.624 133.55 21.624C131.672 21.624 130.222 22.072 129.198 22.968C128.174 23.8427 127.661 25.3253 127.661 27.416C127.661 29.4213 128.11 30.8933 129.006 31.832C129.902 32.7493 131.384 33.208 133.454 33.208C134.926 33.208 136.28 32.9307 137.518 32.376V34.488C136.856 34.7653 136.142 34.968 135.374 35.096C134.627 35.2453 133.784 35.32 132.845 35.32ZM147.915 35.32C145.205 35.32 143.179 34.6693 141.835 33.368C140.491 32.0667 139.819 30.0613 139.819 27.352C139.819 24.92 140.395 23.0107 141.547 21.624C142.72 20.216 144.565 19.512 147.083 19.512C148.576 19.512 149.803 19.7893 150.763 20.344C151.744 20.8773 152.469 21.624 152.939 22.584C153.429 23.5227 153.675 24.5893 153.675 25.784V28.632H142.443C142.528 29.784 142.773 30.6907 143.179 31.352C143.605 32.0133 144.235 32.4933 145.067 32.792C145.92 33.0693 147.04 33.208 148.427 33.208C149.984 33.208 151.413 32.9413 152.715 32.408V34.456C152.053 34.7333 151.307 34.9467 150.475 35.096C149.664 35.2453 148.811 35.32 147.915 35.32ZM142.443 26.744H151.339V25.496C151.339 24.2587 151.008 23.3093 150.347 22.648C149.707 21.9653 148.64 21.624 147.147 21.624C145.333 21.624 144.096 22.0507 143.435 22.904C142.773 23.7573 142.443 25.0373 142.443 26.744ZM164.896 35V19.832H167.264L167.456 21.752C168.203 21.2613 169.078 20.8133 170.08 20.408C171.104 20.0027 172.107 19.704 173.088 19.512V21.56C172.491 21.688 171.84 21.8693 171.136 22.104C170.432 22.3173 169.76 22.5627 169.12 22.84C168.48 23.1173 167.947 23.4053 167.52 23.704V35H164.896ZM182.79 35.32C180.08 35.32 178.054 34.6693 176.71 33.368C175.366 32.0667 174.694 30.0613 174.694 27.352C174.694 24.92 175.27 23.0107 176.422 21.624C177.595 20.216 179.44 19.512 181.958 19.512C183.451 19.512 184.678 19.7893 185.638 20.344C186.619 20.8773 187.344 21.624 187.814 22.584C188.304 23.5227 188.55 24.5893 188.55 25.784V28.632H177.318C177.403 29.784 177.648 30.6907 178.054 31.352C178.48 32.0133 179.11 32.4933 179.942 32.792C180.795 33.0693 181.915 33.208 183.302 33.208C184.859 33.208 186.288 32.9413 187.59 32.408V34.456C186.928 34.7333 186.182 34.9467 185.35 35.096C184.539 35.2453 183.686 35.32 182.79 35.32ZM177.318 26.744H186.214V25.496C186.214 24.2587 185.883 23.3093 185.222 22.648C184.582 21.9653 183.515 21.624 182.022 21.624C180.208 21.624 178.971 22.0507 178.31 22.904C177.648 23.7573 177.318 25.0373 177.318 26.744ZM196.944 35.32C195.984 35.32 195.099 35.1493 194.288 34.808C193.477 34.4667 192.827 33.9653 192.336 33.304C191.845 32.6213 191.6 31.768 191.6 30.744C191.6 29.3573 192.059 28.2267 192.976 27.352C193.893 26.456 195.387 26.008 197.456 26.008H202.736V25.08C202.736 24.248 202.619 23.5867 202.384 23.096C202.171 22.6053 201.755 22.2533 201.136 22.04C200.517 21.8267 199.611 21.72 198.416 21.72C197.499 21.72 196.613 21.7947 195.76 21.944C194.907 22.0933 194.107 22.296 193.36 22.552V20.376C194.043 20.12 194.843 19.9173 195.76 19.768C196.699 19.5973 197.701 19.512 198.768 19.512C200.923 19.512 202.533 19.9493 203.6 20.824C204.688 21.6987 205.232 23.1173 205.232 25.08V35H203.024L202.832 33.272C202.171 33.9547 201.371 34.4667 200.432 34.808C199.493 35.1493 198.331 35.32 196.944 35.32ZM197.616 33.176C198.725 33.176 199.707 32.984 200.56 32.6C201.413 32.1947 202.139 31.6507 202.736 30.968V28.024H197.52C196.325 28.024 195.472 28.248 194.96 28.696C194.448 29.144 194.192 29.8267 194.192 30.744C194.192 31.6613 194.501 32.3013 195.12 32.664C195.739 33.0053 196.571 33.176 197.616 33.176ZM212.849 35.32C211.825 35.32 211.014 35.0533 210.417 34.52C209.841 33.9653 209.553 33.0373 209.553 31.736V13.432H212.177V31.448C212.177 32.088 212.283 32.5253 212.497 32.76C212.71 32.9947 213.041 33.112 213.489 33.112C213.979 33.112 214.459 33.048 214.929 32.92V35C214.587 35.128 214.246 35.2133 213.905 35.256C213.563 35.2987 213.211 35.32 212.849 35.32ZM222.682 35.32C221.189 35.32 220.058 34.9253 219.29 34.136C218.544 33.3253 218.17 32.2053 218.17 30.776V21.912H215.866V19.832H218.17V16.088L220.794 15.288V19.832H224.986L224.826 21.912H220.794V30.648C220.794 31.5653 220.997 32.2267 221.402 32.632C221.829 33.016 222.554 33.208 223.578 33.208C224.133 33.208 224.741 33.1013 225.402 32.888V34.872C224.613 35.1707 223.706 35.32 222.682 35.32ZM229.243 16.28V13.88H232.155V16.28H229.243ZM229.499 35V21.912H227.163L227.419 19.832H232.123V35H229.499ZM236.646 35V19.832H239.014L239.174 21.56C239.985 20.92 240.838 20.4187 241.734 20.056C242.652 19.6933 243.633 19.512 244.678 19.512C245.809 19.512 246.684 19.6933 247.302 20.056C247.942 20.4187 248.412 20.9307 248.71 21.592C249.436 20.9947 250.268 20.504 251.206 20.12C252.145 19.7147 253.265 19.512 254.566 19.512C256.294 19.512 257.574 19.96 258.406 20.856C259.26 21.7307 259.686 23.0853 259.686 24.92V35H257.094V25.176C257.094 23.832 256.806 22.904 256.23 22.392C255.676 21.88 254.769 21.624 253.51 21.624C252.678 21.624 251.878 21.7627 251.11 22.04C250.364 22.3173 249.724 22.744 249.19 23.32C249.318 23.8533 249.382 24.472 249.382 25.176V35H246.918V25.24C246.918 23.96 246.705 23.0427 246.278 22.488C245.852 21.912 245.009 21.624 243.75 21.624C242.897 21.624 242.076 21.816 241.286 22.2C240.518 22.5627 239.836 23.0213 239.238 23.576V35H236.646ZM270.977 35.32C268.268 35.32 266.241 34.6693 264.897 33.368C263.553 32.0667 262.881 30.0613 262.881 27.352C262.881 24.92 263.457 23.0107 264.609 21.624C265.783 20.216 267.628 19.512 270.145 19.512C271.639 19.512 272.865 19.7893 273.825 20.344C274.807 20.8773 275.532 21.624 276.001 22.584C276.492 23.5227 276.737 24.5893 276.737 25.784V28.632H265.505C265.591 29.784 265.836 30.6907 266.241 31.352C266.668 32.0133 267.297 32.4933 268.129 32.792C268.983 33.0693 270.103 33.208 271.489 33.208C273.047 33.208 274.476 32.9413 275.777 32.408V34.456C275.116 34.7333 274.369 34.9467 273.537 35.096C272.727 35.2453 271.873 35.32 270.977 35.32ZM265.505 26.744H274.401V25.496C274.401 24.2587 274.071 23.3093 273.409 22.648C272.769 21.9653 271.703 21.624 270.209 21.624C268.396 21.624 267.159 22.0507 266.497 22.904C265.836 23.7573 265.505 25.0373 265.505 26.744ZM292.663 35.32C291.703 35.32 290.817 35.1493 290.007 34.808C289.196 34.4667 288.545 33.9653 288.055 33.304C287.564 32.6213 287.319 31.768 287.319 30.744C287.319 29.3573 287.777 28.2267 288.695 27.352C289.612 26.456 291.105 26.008 293.175 26.008H298.455V25.08C298.455 24.248 298.337 23.5867 298.103 23.096C297.889 22.6053 297.473 22.2533 296.855 22.04C296.236 21.8267 295.329 21.72 294.135 21.72C293.217 21.72 292.332 21.7947 291.479 21.944C290.625 22.0933 289.825 22.296 289.079 22.552V20.376C289.761 20.12 290.561 19.9173 291.479 19.768C292.417 19.5973 293.42 19.512 294.487 19.512C296.641 19.512 298.252 19.9493 299.319 20.824C300.407 21.6987 300.951 23.1173 300.951 25.08V35H298.743L298.551 33.272C297.889 33.9547 297.089 34.4667 296.151 34.808C295.212 35.1493 294.049 35.32 292.663 35.32ZM293.335 33.176C294.444 33.176 295.425 32.984 296.279 32.6C297.132 32.1947 297.857 31.6507 298.455 30.968V28.024H293.239C292.044 28.024 291.191 28.248 290.679 28.696C290.167 29.144 289.911 29.8267 289.911 30.744C289.911 31.6613 290.22 32.3013 290.839 32.664C291.457 33.0053 292.289 33.176 293.335 33.176ZM305.271 35V19.832H307.639L307.799 21.56C308.525 20.9627 309.367 20.472 310.327 20.088C311.309 19.704 312.429 19.512 313.687 19.512C315.607 19.512 317.005 19.96 317.879 20.856C318.754 21.752 319.191 23.16 319.191 25.08V35H316.567V25.176C316.567 23.8533 316.301 22.936 315.767 22.424C315.234 21.8907 314.21 21.624 312.695 21.624C311.757 21.624 310.871 21.7947 310.039 22.136C309.207 22.4773 308.493 22.9467 307.895 23.544V35H305.271ZM327.757 35.32C326.797 35.32 325.911 35.1493 325.101 34.808C324.29 34.4667 323.639 33.9653 323.149 33.304C322.658 32.6213 322.413 31.768 322.413 30.744C322.413 29.3573 322.871 28.2267 323.789 27.352C324.706 26.456 326.199 26.008 328.269 26.008H333.549V25.08C333.549 24.248 333.431 23.5867 333.197 23.096C332.983 22.6053 332.567 22.2533 331.949 22.04C331.33 21.8267 330.423 21.72 329.229 21.72C328.311 21.72 327.426 21.7947 326.573 21.944C325.719 22.0933 324.919 22.296 324.173 22.552V20.376C324.855 20.12 325.655 19.9173 326.573 19.768C327.511 19.5973 328.514 19.512 329.581 19.512C331.735 19.512 333.346 19.9493 334.413 20.824C335.501 21.6987 336.045 23.1173 336.045 25.08V35H333.837L333.645 33.272C332.983 33.9547 332.183 34.4667 331.245 34.808C330.306 35.1493 329.143 35.32 327.757 35.32ZM328.429 33.176C329.538 33.176 330.519 32.984 331.373 32.6C332.226 32.1947 332.951 31.6507 333.549 30.968V28.024H328.333C327.138 28.024 326.285 28.248 325.773 28.696C325.261 29.144 325.005 29.8267 325.005 30.744C325.005 31.6613 325.314 32.3013 325.933 32.664C326.551 33.0053 327.383 33.176 328.429 33.176ZM343.661 35.32C342.637 35.32 341.826 35.0533 341.229 34.52C340.653 33.9653 340.365 33.0373 340.365 31.736V13.432H342.989V31.448C342.989 32.088 343.096 32.5253 343.309 32.76C343.522 32.9947 343.853 33.112 344.301 33.112C344.792 33.112 345.272 33.048 345.741 32.92V35C345.4 35.128 345.058 35.2133 344.717 35.256C344.376 35.2987 344.024 35.32 343.661 35.32ZM349.526 40.632C348.523 40.632 347.648 40.4933 346.902 40.216V38.104C347.264 38.232 347.595 38.3173 347.894 38.36C348.214 38.4027 348.534 38.424 348.854 38.424C349.579 38.424 350.144 38.296 350.55 38.04C350.976 37.784 351.35 37.3893 351.67 36.856C351.99 36.344 352.342 35.672 352.726 34.84L346.038 19.832H348.758L354.038 32.056L359.478 19.832H362.166L355.798 34.328C355.264 35.544 354.72 36.6213 354.166 37.56C353.611 38.52 352.971 39.2667 352.246 39.8C351.52 40.3547 350.614 40.632 349.526 40.632ZM368.696 35.32C367.714 35.32 366.776 35.256 365.88 35.128C365.005 35 364.269 34.8293 363.672 34.616V32.312C364.397 32.568 365.154 32.76 365.944 32.888C366.754 33.016 367.554 33.08 368.344 33.08C369.688 33.08 370.648 32.9413 371.224 32.664C371.8 32.3653 372.088 31.8213 372.088 31.032C372.088 30.456 371.928 30.0187 371.608 29.72C371.309 29.4213 370.84 29.1547 370.2 28.92C369.581 28.6853 368.781 28.408 367.8 28.088C366.925 27.7893 366.146 27.48 365.464 27.16C364.781 26.84 364.248 26.4133 363.864 25.88C363.48 25.3253 363.288 24.5893 363.288 23.672C363.288 22.328 363.757 21.304 364.696 20.6C365.634 19.8747 367.149 19.512 369.24 19.512C370.05 19.512 370.829 19.576 371.576 19.704C372.322 19.8107 372.973 19.9493 373.528 20.12V22.424C372.184 21.976 370.893 21.752 369.656 21.752C368.333 21.752 367.373 21.8907 366.776 22.168C366.2 22.424 365.911 22.9147 365.911 23.64C365.911 24.1307 366.04 24.5253 366.296 24.824C366.573 25.1013 366.989 25.3467 367.544 25.56C368.12 25.752 368.856 25.9973 369.752 26.296C370.925 26.6587 371.874 27.032 372.6 27.416C373.325 27.8 373.858 28.2693 374.2 28.824C374.541 29.3787 374.712 30.104 374.712 31C374.712 32.4933 374.189 33.592 373.144 34.296C372.098 34.9787 370.616 35.32 368.696 35.32ZM379.024 16.28V13.88H381.936V16.28H379.024ZM379.28 35V21.912H376.944L377.2 19.832H381.904V35H379.28ZM391.196 35.32C390.214 35.32 389.276 35.256 388.38 35.128C387.505 35 386.769 34.8293 386.172 34.616V32.312C386.897 32.568 387.654 32.76 388.444 32.888C389.254 33.016 390.054 33.08 390.844 33.08C392.188 33.08 393.148 32.9413 393.724 32.664C394.3 32.3653 394.588 31.8213 394.588 31.032C394.588 30.456 394.428 30.0187 394.108 29.72C393.809 29.4213 393.34 29.1547 392.7 28.92C392.081 28.6853 391.281 28.408 390.3 28.088C389.425 27.7893 388.646 27.48 387.964 27.16C387.281 26.84 386.748 26.4133 386.364 25.88C385.98 25.3253 385.788 24.5893 385.788 23.672C385.788 22.328 386.257 21.304 387.196 20.6C388.134 19.8747 389.649 19.512 391.74 19.512C392.55 19.512 393.329 19.576 394.076 19.704C394.822 19.8107 395.473 19.9493 396.028 20.12V22.424C394.684 21.976 393.393 21.752 392.156 21.752C390.833 21.752 389.873 21.8907 389.276 22.168C388.7 22.424 388.411 22.9147 388.411 23.64C388.411 24.1307 388.54 24.5253 388.796 24.824C389.073 25.1013 389.489 25.3467 390.044 25.56C390.62 25.752 391.356 25.9973 392.252 26.296C393.425 26.6587 394.374 27.032 395.1 27.416C395.825 27.8 396.358 28.2693 396.7 28.824C397.041 29.3787 397.212 30.104 397.212 31C397.212 32.4933 396.689 33.592 395.644 34.296C394.598 34.9787 393.116 35.32 391.196 35.32Z" fill="white"/>
<path d="M49.5 108.417C47.0347 108.417 44.9392 107.554 43.2135 105.828C41.4878 104.103 40.625 102.007 40.625 99.542V81.792C40.625 79.3267 41.4878 77.2312 43.2135 75.5055C44.9392 73.7798 47.0347 72.917 49.5 72.917C51.9652 72.917 54.0607 73.7798 55.7864 75.5055C57.5121 77.2312 58.375 79.3267 58.375 81.792V99.542C58.375 102.007 57.5121 104.103 55.7864 105.828C54.0607 107.554 51.9652 108.417 49.5 108.417ZM46.5416 129.125V120.028C41.4138 119.338 37.1736 117.045 33.8208 113.15C30.468 109.255 28.7916 104.719 28.7916 99.542H34.7083C34.7083 103.634 36.151 107.122 39.0363 110.006C41.9197 112.891 45.4076 114.334 49.5 114.334C53.5923 114.334 57.0812 112.891 59.9665 110.006C62.8499 107.122 64.2916 103.634 64.2916 99.542H70.2083C70.2083 104.719 68.5319 109.255 65.1791 113.15C61.8263 117.045 57.5861 119.338 52.4583 120.028V129.125H46.5416Z" fill="white"/>
<path d="M106.081 99L99.0566 80.6102H103.083L108.166 94.6881L113.277 80.6102H117.304L110.307 99H106.081ZM124.187 99.2856C121.655 99.2856 119.799 98.6764 118.618 97.458C117.438 96.2206 116.848 94.4787 116.848 92.2323C116.848 89.9859 117.438 88.2536 118.618 87.0352C119.818 85.7978 121.674 85.1791 124.187 85.1791C126.719 85.1791 128.575 85.7978 129.755 87.0352C130.955 88.2536 131.554 89.9859 131.554 92.2323C131.554 94.4787 130.964 96.2206 129.784 97.458C128.603 98.6764 126.738 99.2856 124.187 99.2856ZM124.187 96.0017C125.424 96.0017 126.309 95.7256 126.843 95.1735C127.376 94.6024 127.642 93.622 127.642 92.2323C127.642 90.8426 127.376 89.8717 126.843 89.3196C126.309 88.7485 125.424 88.463 124.187 88.463C122.968 88.463 122.093 88.7485 121.56 89.3196C121.027 89.8717 120.76 90.8426 120.76 92.2323C120.76 93.622 121.027 94.6024 121.56 95.1735C122.093 95.7256 122.968 96.0017 124.187 96.0017ZM134.619 82.9803V79.9534H138.817V82.9803H134.619ZM134.933 99V88.3202H132.906L133.249 85.4646H138.788V99H134.933ZM148.981 99.2856C146.563 99.2856 144.707 98.6859 143.413 97.4866C142.137 96.2872 141.5 94.5358 141.5 92.2323C141.5 89.8527 142.185 88.0822 143.556 86.921C144.945 85.7597 146.792 85.1791 149.095 85.1791C150.047 85.1791 150.866 85.2457 151.551 85.379C152.236 85.5122 152.903 85.7312 153.55 86.0357V88.8056C153.074 88.5772 152.522 88.3963 151.894 88.2631C151.266 88.1298 150.59 88.0632 149.866 88.0632C148.42 88.0632 147.315 88.3678 146.554 88.977C145.792 89.5671 145.412 90.6522 145.412 92.2323C145.412 93.6791 145.754 94.7357 146.44 95.402C147.144 96.0683 148.277 96.4014 149.838 96.4014C150.504 96.4014 151.151 96.3348 151.78 96.2015C152.427 96.0683 153.027 95.8684 153.579 95.6019V98.4574C152.303 99.0095 150.771 99.2856 148.981 99.2856ZM163.067 99.2856C160.726 99.2856 158.869 98.7049 157.499 97.5437C156.128 96.3634 155.443 94.5834 155.443 92.2038C155.443 90.0526 156.014 88.3488 157.156 87.0923C158.317 85.8168 160.04 85.1791 162.325 85.1791C164.419 85.1791 166.018 85.7312 167.122 86.8353C168.245 87.9204 168.807 89.3482 168.807 91.1186V93.5744H159.012C159.222 94.6595 159.717 95.402 160.497 95.8018C161.297 96.2015 162.42 96.4014 163.867 96.4014C164.59 96.4014 165.323 96.3348 166.065 96.2015C166.827 96.0683 167.474 95.897 168.007 95.6875V98.4289C167.379 98.7144 166.646 98.9239 165.808 99.0571C164.971 99.2094 164.057 99.2856 163.067 99.2856ZM159.012 91.2043H165.437V90.4619C165.437 89.6813 165.209 89.0722 164.752 88.6343C164.295 88.1774 163.524 87.949 162.439 87.949C161.163 87.949 160.269 88.206 159.755 88.72C159.26 89.234 159.012 90.0621 159.012 91.2043Z" fill="white"/>
<path d="M101.904 120V110.736H98.48V109.696H106.64V110.736H103.216V120H101.904ZM110.03 120.16C108.707 120.16 107.742 119.824 107.134 119.152C106.536 118.469 106.238 117.488 106.238 116.208C106.238 114.939 106.542 113.963 107.15 113.28C107.758 112.597 108.718 112.256 110.03 112.256C111.342 112.256 112.302 112.597 112.91 113.28C113.518 113.963 113.822 114.939 113.822 116.208C113.822 117.488 113.523 118.469 112.926 119.152C112.328 119.824 111.363 120.16 110.03 120.16ZM110.03 119.04C110.936 119.04 111.576 118.816 111.95 118.368C112.323 117.909 112.51 117.189 112.51 116.208C112.51 115.227 112.318 114.512 111.934 114.064C111.56 113.605 110.926 113.376 110.03 113.376C109.134 113.376 108.494 113.605 108.11 114.064C107.736 114.512 107.549 115.227 107.549 116.208C107.549 117.189 107.736 117.909 108.11 118.368C108.483 118.816 109.123 119.04 110.03 119.04ZM114.546 120L117.426 116.144L114.642 112.416H116.066L118.13 115.248L120.21 112.416H121.618L118.866 116.144L121.73 120H120.306L118.13 117.04L115.97 120H114.546ZM123.653 110.64V109.44H125.109V110.64H123.653ZM123.781 120V113.456H122.613L122.741 112.416H125.093V120H123.781ZM130.938 120.16C129.616 120.16 128.634 119.819 127.994 119.136C127.354 118.443 127.034 117.467 127.034 116.208C127.034 114.875 127.397 113.883 128.122 113.232C128.848 112.581 129.824 112.256 131.05 112.256C131.552 112.256 131.968 112.293 132.298 112.368C132.629 112.432 132.949 112.539 133.258 112.688V113.728C132.682 113.451 132.026 113.312 131.29 113.312C130.352 113.312 129.626 113.536 129.114 113.984C128.602 114.421 128.346 115.163 128.346 116.208C128.346 117.211 128.57 117.947 129.018 118.416C129.466 118.875 130.208 119.104 131.242 119.104C131.978 119.104 132.656 118.965 133.274 118.688V119.744C132.944 119.883 132.586 119.984 132.202 120.048C131.829 120.123 131.408 120.16 130.938 120.16ZM135.465 110.64V109.44H136.921V110.64H135.465ZM135.593 120V113.456H134.425L134.553 112.416H136.905V120H135.593ZM141.935 120.16C141.188 120.16 140.623 119.963 140.239 119.568C139.866 119.163 139.679 118.603 139.679 117.888V113.456H138.527V112.416H139.679V110.544L140.991 110.144V112.416H143.087L143.007 113.456H140.991V117.824C140.991 118.283 141.092 118.613 141.295 118.816C141.508 119.008 141.871 119.104 142.383 119.104C142.66 119.104 142.964 119.051 143.295 118.944V119.936C142.9 120.085 142.447 120.16 141.935 120.16ZM145.513 122.816C145.011 122.816 144.574 122.747 144.201 122.608V121.552C144.382 121.616 144.547 121.659 144.697 121.68C144.857 121.701 145.017 121.712 145.177 121.712C145.539 121.712 145.822 121.648 146.025 121.52C146.238 121.392 146.425 121.195 146.585 120.928C146.745 120.672 146.921 120.336 147.113 119.92L143.769 112.416H145.129L147.769 118.528L150.489 112.416H151.833L148.649 119.664C148.382 120.272 148.11 120.811 147.833 121.28C147.555 121.76 147.235 122.133 146.873 122.4C146.51 122.677 146.057 122.816 145.513 122.816ZM157.12 120V109.696H158.528L162.016 116.848L165.504 109.696H166.912V120H165.616V111.744L162.464 118.208H161.584L158.416 111.744V120H157.12ZM172.623 120.16C171.301 120.16 170.335 119.824 169.727 119.152C169.13 118.469 168.831 117.488 168.831 116.208C168.831 114.939 169.135 113.963 169.743 113.28C170.351 112.597 171.311 112.256 172.623 112.256C173.935 112.256 174.895 112.597 175.503 113.28C176.111 113.963 176.415 114.939 176.415 116.208C176.415 117.488 176.117 118.469 175.519 119.152C174.922 119.824 173.957 120.16 172.623 120.16ZM172.623 119.04C173.53 119.04 174.17 118.816 174.543 118.368C174.917 117.909 175.103 117.189 175.103 116.208C175.103 115.227 174.911 114.512 174.527 114.064C174.154 113.605 173.519 113.376 172.623 113.376C171.727 113.376 171.087 113.605 170.703 114.064C170.33 114.512 170.143 115.227 170.143 116.208C170.143 117.189 170.33 117.909 170.703 118.368C171.077 118.816 171.717 119.04 172.623 119.04ZM178.339 120V112.416H179.523L179.603 113.28C179.965 112.981 180.387 112.736 180.867 112.544C181.357 112.352 181.917 112.256 182.547 112.256C183.507 112.256 184.205 112.48 184.643 112.928C185.08 113.376 185.299 114.08 185.299 115.04V120H183.987V115.088C183.987 114.427 183.853 113.968 183.587 113.712C183.32 113.445 182.808 113.312 182.051 113.312C181.581 113.312 181.139 113.397 180.723 113.568C180.307 113.739 179.949 113.973 179.651 114.272V120H178.339ZM187.699 110.64V109.44H189.155V110.64H187.699ZM187.827 120V113.456H186.659L186.787 112.416H189.139V120H187.827ZM194.169 120.16C193.423 120.16 192.857 119.963 192.473 119.568C192.1 119.163 191.913 118.603 191.913 117.888V113.456H190.761V112.416H191.913V110.544L193.225 110.144V112.416H195.321L195.241 113.456H193.225V117.824C193.225 118.283 193.327 118.613 193.529 118.816C193.743 119.008 194.105 119.104 194.617 119.104C194.895 119.104 195.199 119.051 195.529 118.944V119.936C195.135 120.085 194.681 120.16 194.169 120.16ZM200.514 120.16C199.191 120.16 198.226 119.824 197.618 119.152C197.021 118.469 196.722 117.488 196.722 116.208C196.722 114.939 197.026 113.963 197.634 113.28C198.242 112.597 199.202 112.256 200.514 112.256C201.826 112.256 202.786 112.597 203.394 113.28C204.002 113.963 204.306 114.939 204.306 116.208C204.306 117.488 204.007 118.469 203.41 119.152C202.813 119.824 201.847 120.16 200.514 120.16ZM200.514 119.04C201.421 119.04 202.061 118.816 202.434 118.368C202.807 117.909 202.994 117.189 202.994 116.208C202.994 115.227 202.802 114.512 202.418 114.064C202.045 113.605 201.41 113.376 200.514 113.376C199.618 113.376 198.978 113.605 198.594 114.064C198.221 114.512 198.034 115.227 198.034 116.208C198.034 117.189 198.221 117.909 198.594 118.368C198.967 118.816 199.607 119.04 200.514 119.04ZM206.229 120V112.416H207.413L207.509 113.376C207.883 113.131 208.32 112.907 208.821 112.704C209.333 112.501 209.835 112.352 210.325 112.256V113.28C210.027 113.344 209.701 113.435 209.349 113.552C208.997 113.659 208.661 113.781 208.341 113.92C208.021 114.059 207.755 114.203 207.541 114.352V120H206.229ZM212.324 110.64V109.44H213.78V110.64H212.324ZM212.452 120V113.456H211.284L211.412 112.416H213.764V120H212.452ZM216.026 120V112.416H217.21L217.29 113.28C217.653 112.981 218.074 112.736 218.554 112.544C219.045 112.352 219.605 112.256 220.234 112.256C221.194 112.256 221.893 112.48 222.33 112.928C222.768 113.376 222.986 114.08 222.986 115.04V120H221.674V115.088C221.674 114.427 221.541 113.968 221.274 113.712C221.008 113.445 220.496 113.312 219.738 113.312C219.269 113.312 218.826 113.397 218.41 113.568C217.994 113.739 217.637 113.973 217.338 114.272V120H216.026ZM228.095 122.816C227.53 122.816 226.975 122.784 226.431 122.72C225.898 122.656 225.439 122.555 225.055 122.416V121.328C225.482 121.467 225.962 121.573 226.495 121.648C227.029 121.723 227.541 121.76 228.031 121.76C228.831 121.76 229.418 121.712 229.791 121.616C230.165 121.52 230.351 121.275 230.351 120.88C230.351 120.603 230.25 120.405 230.047 120.288C229.855 120.171 229.509 120.112 229.007 120.112H226.991C225.594 120.112 224.895 119.643 224.895 118.704C224.895 118.395 224.991 118.101 225.183 117.824C225.386 117.536 225.685 117.333 226.079 117.216C225.653 117.003 225.338 116.709 225.135 116.336C224.933 115.952 224.831 115.499 224.831 114.976C224.831 114.027 225.103 113.339 225.647 112.912C226.202 112.475 227.045 112.256 228.175 112.256C228.41 112.256 228.65 112.277 228.895 112.32C229.151 112.352 229.349 112.384 229.487 112.416H232.223L232.175 113.312H230.799C231.045 113.515 231.221 113.76 231.327 114.048C231.434 114.325 231.487 114.635 231.487 114.976C231.487 115.819 231.242 116.475 230.751 116.944C230.261 117.403 229.509 117.632 228.495 117.632C228.325 117.632 228.17 117.627 228.031 117.616C227.903 117.595 227.749 117.573 227.567 117.552C227.237 117.563 226.927 117.659 226.639 117.84C226.351 118.011 226.207 118.235 226.207 118.512C226.207 118.693 226.277 118.827 226.415 118.912C226.565 118.997 226.831 119.04 227.215 119.04H229.311C230.069 119.04 230.65 119.195 231.055 119.504C231.461 119.803 231.663 120.245 231.663 120.832C231.663 121.579 231.354 122.096 230.735 122.384C230.117 122.672 229.237 122.816 228.095 122.816ZM228.175 116.64C228.933 116.64 229.455 116.517 229.743 116.272C230.031 116.027 230.175 115.595 230.175 114.976C230.175 114.357 230.021 113.909 229.711 113.632C229.413 113.355 228.901 113.216 228.175 113.216C227.461 113.216 226.943 113.349 226.623 113.616C226.303 113.883 226.143 114.336 226.143 114.976C226.143 115.563 226.293 115.989 226.591 116.256C226.901 116.512 227.429 116.64 228.175 116.64Z" fill="white"/>
<path d="M361.057 99L368.081 80.6102H372.307L379.304 99H375.306L373.564 94.5739H366.796L365.083 99H361.057ZM367.367 91.6041H372.993L370.166 84.2082L367.367 91.6041ZM381.985 99V80.6102H385.84V99H381.985Z" fill="white"/>
<path d="M363.904 120V110.736H360.48V109.696H368.64V110.736H365.216V120H363.904ZM370.168 110.64V109.44H371.624V110.64H370.168ZM370.296 120V113.456H369.128L369.256 112.416H371.608V120H370.296ZM375.518 120.16C375.006 120.16 374.601 120.027 374.302 119.76C374.014 119.483 373.87 119.019 373.87 118.368V109.216H375.182V118.224C375.182 118.544 375.235 118.763 375.342 118.88C375.449 118.997 375.614 119.056 375.838 119.056C376.083 119.056 376.323 119.024 376.558 118.96V120C376.387 120.064 376.217 120.107 376.046 120.128C375.875 120.149 375.699 120.16 375.518 120.16ZM380.435 120.16C379.688 120.16 379.123 119.963 378.739 119.568C378.366 119.163 378.179 118.603 378.179 117.888V113.456H377.027V112.416H378.179V110.544L379.491 110.144V112.416H381.587L381.507 113.456H379.491V117.824C379.491 118.283 379.592 118.613 379.795 118.816C380.008 119.008 380.371 119.104 380.883 119.104C381.16 119.104 381.464 119.051 381.795 118.944V119.936C381.4 120.085 380.947 120.16 380.435 120.16ZM386.995 120V109.696H391.347C392.499 109.696 393.347 110.005 393.891 110.624C394.435 111.243 394.707 112.043 394.707 113.024C394.707 114.027 394.398 114.821 393.779 115.408C393.171 115.984 392.339 116.272 391.283 116.272H388.307V120H386.995ZM388.307 115.248H391.075C391.843 115.248 392.419 115.051 392.803 114.656C393.198 114.251 393.395 113.707 393.395 113.024C393.395 112.299 393.208 111.739 392.835 111.344C392.472 110.939 391.912 110.736 391.155 110.736H388.307V115.248ZM396.308 120V112.416H397.492L397.588 113.376C397.961 113.131 398.398 112.907 398.9 112.704C399.412 112.501 399.913 112.352 400.404 112.256V113.28C400.105 113.344 399.78 113.435 399.428 113.552C399.076 113.659 398.74 113.781 398.42 113.92C398.1 114.059 397.833 114.203 397.62 114.352V120H396.308ZM405.254 120.16C403.9 120.16 402.886 119.835 402.214 119.184C401.542 118.533 401.206 117.531 401.206 116.176C401.206 114.96 401.494 114.005 402.07 113.312C402.657 112.608 403.58 112.256 404.838 112.256C405.585 112.256 406.198 112.395 406.678 112.672C407.169 112.939 407.532 113.312 407.766 113.792C408.012 114.261 408.134 114.795 408.134 115.392V116.816H402.518C402.561 117.392 402.684 117.845 402.886 118.176C403.1 118.507 403.414 118.747 403.83 118.896C404.257 119.035 404.817 119.104 405.51 119.104C406.289 119.104 407.004 118.971 407.654 118.704V119.728C407.324 119.867 406.95 119.973 406.534 120.048C406.129 120.123 405.702 120.16 405.254 120.16ZM402.518 115.872H406.966V115.248C406.966 114.629 406.801 114.155 406.47 113.824C406.15 113.483 405.617 113.312 404.87 113.312C403.964 113.312 403.345 113.525 403.014 113.952C402.684 114.379 402.518 115.019 402.518 115.872ZM413.161 120.16C412.095 120.16 411.258 119.867 410.65 119.28C410.042 118.683 409.738 117.696 409.738 116.32C409.738 114.955 410.052 113.936 410.682 113.264C411.322 112.592 412.175 112.256 413.242 112.256C414.191 112.256 415.012 112.496 415.706 112.976V109.216H417.017V120H415.898L415.802 119.2C415.45 119.531 415.06 119.776 414.634 119.936C414.218 120.085 413.727 120.16 413.161 120.16ZM413.498 119.104C413.935 119.104 414.34 119.029 414.714 118.88C415.087 118.731 415.418 118.501 415.706 118.192V114.064C415.439 113.829 415.124 113.648 414.762 113.52C414.399 113.381 413.988 113.312 413.53 113.312C412.687 113.312 412.063 113.557 411.658 114.048C411.252 114.528 411.049 115.285 411.049 116.32C411.049 117.312 411.236 118.027 411.61 118.464C411.983 118.891 412.612 119.104 413.498 119.104ZM419.981 110.64V109.44H421.437V110.64H419.981ZM420.109 120V113.456H418.941L419.069 112.416H421.421V120H420.109ZM427.266 120.16C425.944 120.16 424.963 119.819 424.323 119.136C423.683 118.443 423.363 117.467 423.363 116.208C423.363 114.875 423.725 113.883 424.451 113.232C425.176 112.581 426.152 112.256 427.379 112.256C427.88 112.256 428.296 112.293 428.627 112.368C428.957 112.432 429.277 112.539 429.587 112.688V113.728C429.011 113.451 428.355 113.312 427.619 113.312C426.68 113.312 425.955 113.536 425.443 113.984C424.931 114.421 424.674 115.163 424.674 116.208C424.674 117.211 424.899 117.947 425.347 118.416C425.795 118.875 426.536 119.104 427.571 119.104C428.307 119.104 428.984 118.965 429.603 118.688V119.744C429.272 119.883 428.915 119.984 428.531 120.048C428.157 120.123 427.736 120.16 427.266 120.16ZM433.841 120.16C433.094 120.16 432.529 119.963 432.145 119.568C431.772 119.163 431.585 118.603 431.585 117.888V113.456H430.433V112.416H431.585V110.544L432.897 110.144V112.416H434.993L434.913 113.456H432.897V117.824C432.897 118.283 432.998 118.613 433.201 118.816C433.414 119.008 433.777 119.104 434.289 119.104C434.566 119.104 434.87 119.051 435.201 118.944V119.936C434.806 120.085 434.353 120.16 433.841 120.16ZM437.121 110.64V109.44H438.577V110.64H437.121ZM437.249 120V113.456H436.081L436.209 112.416H438.561V120H437.249ZM444.295 120.16C442.972 120.16 442.007 119.824 441.399 119.152C440.802 118.469 440.503 117.488 440.503 116.208C440.503 114.939 440.807 113.963 441.415 113.28C442.023 112.597 442.983 112.256 444.295 112.256C445.607 112.256 446.567 112.597 447.175 113.28C447.783 113.963 448.087 114.939 448.087 116.208C448.087 117.488 447.788 118.469 447.191 119.152C446.594 119.824 445.628 120.16 444.295 120.16ZM444.295 119.04C445.202 119.04 445.842 118.816 446.215 118.368C446.588 117.909 446.775 117.189 446.775 116.208C446.775 115.227 446.583 114.512 446.199 114.064C445.826 113.605 445.191 113.376 444.295 113.376C443.399 113.376 442.759 113.605 442.375 114.064C442.002 114.512 441.815 115.227 441.815 116.208C441.815 117.189 442.002 117.909 442.375 118.368C442.748 118.816 443.388 119.04 444.295 119.04ZM450.011 120V112.416H451.195L451.275 113.28C451.637 112.981 452.059 112.736 452.539 112.544C453.029 112.352 453.589 112.256 454.219 112.256C455.179 112.256 455.877 112.48 456.315 112.928C456.752 113.376 456.971 114.08 456.971 115.04V120H455.659V115.088C455.659 114.427 455.525 113.968 455.259 113.712C454.992 113.445 454.48 113.312 453.723 113.312C453.253 113.312 452.811 113.397 452.395 113.568C451.979 113.739 451.621 113.973 451.323 114.272V120H450.011Z" fill="white"/>
<path d="M335.77 108.122C335.98 111.739 334.323 115.215 331.36 117.339L333.157 120.815C333.693 121.865 333.763 123.102 333.297 124.199C332.853 125.295 331.943 126.159 330.823 126.532L328.98 127.115C328.212 127.374 327.384 127.389 326.607 127.16C325.83 126.93 325.144 126.466 324.64 125.832L319.693 119.999C317.617 119.649 315.657 118.762 314 117.432C312.833 117.782 311.667 117.969 310.5 117.969C308.447 117.969 306.393 117.339 304.667 116.125C303.43 116.499 302.17 116.662 300.887 116.639C299.043 116.662 297.223 116.289 295.52 115.589C293.88 114.857 292.48 113.68 291.477 112.19C290.474 110.701 289.911 108.96 289.85 107.165C289.663 105.485 289.943 103.782 290.667 102.242C289.99 100.492 289.92 98.5787 290.503 96.8054C291.367 94.5887 293 92.7454 295.03 91.5787C296.383 87.6354 300.187 84.9987 304.363 85.2787C308.097 81.7787 313.813 81.4054 317.967 84.4154C318.947 84.1587 319.973 84.0187 321 84.0187C324.173 83.9487 327.183 85.3487 329.167 87.8454C333.927 89.082 337.333 93.3287 337.52 98.2754C337.637 100.865 336.937 103.409 335.513 105.579C335.677 106.419 335.77 107.259 335.77 108.122ZM324.103 104.832C325.433 104.995 326.483 105.999 326.483 107.329C326.483 107.948 326.238 108.541 325.8 108.979C325.362 109.416 324.769 109.662 324.15 109.662H322.68C321.933 111.762 320.627 113.605 318.9 115.005C319.483 115.215 320.09 115.332 320.697 115.495C332.667 115.332 331.267 108.029 331.267 107.912C331.205 106.309 330.509 104.797 329.332 103.707C328.154 102.618 326.593 102.04 324.99 102.102C324.371 102.102 323.778 101.856 323.34 101.419C322.903 100.981 322.657 100.388 322.657 99.7687C322.657 99.1499 322.903 98.5564 323.34 98.1188C323.778 97.6812 324.371 97.4354 324.99 97.4354C327.86 97.5054 330.613 98.5787 332.76 100.469C332.877 99.792 332.947 99.092 332.947 98.392C332.807 95.4987 331.5 92.9787 326.25 92.4887C323.333 85.582 315.983 89.4087 315.983 91.5554C315.913 92.092 316.473 93.2354 316.567 93.3054C317.186 93.3054 317.779 93.5512 318.217 93.9888C318.654 94.4264 318.9 95.0199 318.9 95.6387C318.9 96.922 317.85 97.972 316.567 97.972C315.33 97.9254 314.163 97.4587 313.23 96.6654C312.11 97.3887 310.827 97.832 309.497 97.972C308.167 98.0887 307.07 97.1554 307 95.872C306.957 95.5672 306.977 95.2569 307.058 94.96C307.139 94.6631 307.281 94.386 307.473 94.1456C307.665 93.9053 307.904 93.7067 308.176 93.5622C308.448 93.4177 308.747 93.3303 309.053 93.3054C309.427 93.2587 311.247 92.9787 311.247 91.5087C311.247 89.9687 311.83 88.4987 312.833 87.332C310.687 86.7487 308.377 87.5187 306.043 90.342C301.75 89.6654 300 90.2487 298.717 94.7987C296.5 95.8954 295.333 96.6654 294.82 98.9987C297.34 98.4854 299.93 98.6954 302.333 99.582C303.5 100.025 304.153 101.332 303.71 102.592C303.267 103.805 301.913 104.412 300.7 103.969C298.997 103.222 297.083 103.175 295.333 103.829C294.587 104.459 294.587 105.765 294.587 106.792C294.587 108.519 295.45 110.129 296.92 111.062C298.157 111.692 299.533 112.019 300.91 111.995C300.56 111.389 300.257 110.759 300 110.105C299.816 109.506 299.872 108.859 300.156 108.299C300.44 107.74 300.93 107.313 301.522 107.108C302.114 106.902 302.763 106.934 303.332 107.197C303.901 107.461 304.346 107.934 304.573 108.519C305.507 111.179 307.887 112.999 310.687 113.302C313.883 113.139 316.73 111.249 318.13 108.332C318.667 105.112 321.257 104.832 324.103 104.832ZM328.77 122.262L327.323 119.229L325.667 119.602L328 122.519L328.77 122.262M317.92 102.172C317.94 101.576 317.732 100.995 317.337 100.548C316.942 100.101 316.391 99.822 315.797 99.7687C314.14 99.6754 312.53 100.235 311.293 101.332C309.963 102.685 309.263 104.552 309.333 106.442C309.333 107.061 309.579 107.654 310.017 108.092C310.454 108.53 311.048 108.775 311.667 108.775C312.997 108.775 314 107.725 314 106.442C314 105.812 314.163 105.182 314.537 104.669C314.817 104.435 315.167 104.319 315.54 104.319C316.823 104.389 317.92 103.432 317.92 102.172Z" fill="white"/>
<path d="M574.5 112.646C577.26 112.646 579.607 111.68 581.54 109.748C583.472 107.815 584.437 105.469 584.437 102.708C584.437 99.9479 583.472 97.6012 581.54 95.6682C579.607 93.7366 577.26 92.7708 574.5 92.7708C571.74 92.7708 569.393 93.7366 567.46 95.6682C565.528 97.6012 564.562 99.9479 564.562 102.708C564.562 105.469 565.528 107.815 567.46 109.748C569.393 111.68 571.74 112.646 574.5 112.646ZM556.833 120.375C555.619 120.375 554.579 119.943 553.715 119.079C552.849 118.213 552.417 117.173 552.417 115.958V89.4583C552.417 88.2437 552.849 87.2044 553.715 86.3402C554.579 85.4745 555.619 85.0417 556.833 85.0417H563.79L566.55 82.0604C566.955 81.5819 567.442 81.2227 568.012 80.9827C568.583 80.7442 569.182 80.625 569.807 80.625H579.193C579.818 80.625 580.417 80.7442 580.988 80.9827C581.558 81.2227 582.045 81.5819 582.45 82.0604L585.21 85.0417H592.167C593.381 85.0417 594.421 85.4745 595.287 86.3402C596.151 87.2044 596.583 88.2437 596.583 89.4583V115.958C596.583 117.173 596.151 118.213 595.287 119.079C594.421 119.943 593.381 120.375 592.167 120.375H556.833Z" fill="white"/>
<path d="M632.594 99.2856C629.51 99.2856 627.15 98.4574 625.512 96.8012C623.875 95.126 623.057 92.851 623.057 89.9764C623.057 86.9305 623.847 84.5604 625.427 82.8661C627.026 81.1718 629.405 80.3246 632.566 80.3246C633.67 80.3246 634.66 80.4103 635.535 80.5816C636.43 80.7339 637.268 80.9528 638.048 81.2384V84.608C636.43 83.9417 634.698 83.6085 632.851 83.6085C630.757 83.6085 629.253 84.132 628.339 85.1791C627.426 86.2261 626.969 87.8252 626.969 89.9764C626.969 94.0123 628.949 96.0302 632.908 96.0302C633.803 96.0302 634.688 95.9541 635.564 95.8018C636.44 95.6304 637.277 95.383 638.077 95.0593V98.4574C637.296 98.7049 636.459 98.9048 635.564 99.0571C634.688 99.2094 633.698 99.2856 632.594 99.2856ZM645.005 99.2856C644.148 99.2856 643.348 99.1333 642.606 98.8287C641.883 98.505 641.292 98.0386 640.836 97.4294C640.398 96.8012 640.179 96.0207 640.179 95.0879C640.179 93.7553 640.645 92.6892 641.578 91.8897C642.53 91.0901 643.929 90.6903 645.776 90.6903H649.773V90.3191C649.773 89.4815 649.536 88.8913 649.06 88.5486C648.603 88.206 647.67 88.0346 646.261 88.0346C644.719 88.0346 643.234 88.2726 641.806 88.7485V86.0357C642.435 85.7883 643.196 85.5884 644.091 85.4361C645.005 85.2647 645.995 85.1791 647.061 85.1791C649.098 85.1791 650.668 85.5979 651.772 86.4355C652.896 87.2541 653.457 88.5772 653.457 90.4048V99H650.116L649.916 97.7721C649.383 98.248 648.726 98.6193 647.946 98.8858C647.165 99.1523 646.185 99.2856 645.005 99.2856ZM646.061 96.7441C646.918 96.7441 647.66 96.6013 648.289 96.3158C648.917 96.0302 649.412 95.6685 649.773 95.2307V93.089H645.861C644.357 93.089 643.605 93.7077 643.605 94.9451C643.605 96.1444 644.424 96.7441 646.061 96.7441ZM656.561 99V85.4646H660.131L660.274 86.7782C660.921 86.2832 661.625 85.893 662.387 85.6074C663.167 85.3219 664.005 85.1791 664.9 85.1791C665.852 85.1791 666.584 85.3219 667.098 85.6074C667.632 85.893 668.041 86.3023 668.326 86.8353C668.955 86.3403 669.668 85.9406 670.468 85.636C671.287 85.3314 672.248 85.1791 673.352 85.1791C674.913 85.1791 676.065 85.5884 676.807 86.407C677.55 87.2065 677.921 88.4344 677.921 90.0906V99H674.123V90.519C674.123 89.6242 673.933 88.9865 673.552 88.6058C673.171 88.206 672.562 88.0061 671.724 88.0061C670.582 88.0061 669.63 88.4154 668.869 89.234C668.964 89.5576 669.012 89.9479 669.012 90.4048V99H665.414V90.519C665.414 89.6813 665.271 89.0531 664.985 88.6343C664.7 88.2155 664.148 88.0061 663.329 88.0061C662.758 88.0061 662.215 88.1584 661.701 88.463C661.206 88.7485 660.759 89.0817 660.359 89.4624V99H656.561ZM687.681 99.2856C685.339 99.2856 683.483 98.7049 682.112 97.5437C680.742 96.3634 680.056 94.5834 680.056 92.2038C680.056 90.0526 680.627 88.3488 681.77 87.0923C682.931 85.8168 684.654 85.1791 686.938 85.1791C689.032 85.1791 690.631 85.7312 691.736 86.8353C692.859 87.9204 693.42 89.3482 693.42 91.1186V93.5744H683.626C683.835 94.6595 684.33 95.402 685.111 95.8018C685.91 96.2015 687.033 96.4014 688.48 96.4014C689.204 96.4014 689.936 96.3348 690.679 96.2015C691.44 96.0683 692.088 95.897 692.621 95.6875V98.4289C691.993 98.7144 691.26 98.9239 690.422 99.0571C689.584 99.2094 688.671 99.2856 687.681 99.2856ZM683.626 91.2043H690.051V90.4619C690.051 89.6813 689.822 89.0722 689.365 88.6343C688.908 88.1774 688.137 87.949 687.052 87.949C685.777 87.949 684.882 88.206 684.368 88.72C683.873 89.234 683.626 90.0621 683.626 91.2043ZM696.104 99V85.4646H699.674L699.845 86.8639C700.454 86.4831 701.206 86.1405 702.101 85.8359C703.015 85.5122 703.909 85.2933 704.785 85.1791V88.0918C704.271 88.1679 703.71 88.2821 703.1 88.4344C702.491 88.5867 701.911 88.7581 701.359 88.9484C700.806 89.1388 700.34 89.3387 699.959 89.5481V99H696.104ZM710.147 99.2856C709.291 99.2856 708.491 99.1333 707.749 98.8287C707.025 98.505 706.435 98.0386 705.978 97.4294C705.54 96.8012 705.321 96.0207 705.321 95.0879C705.321 93.7553 705.788 92.6892 706.721 91.8897C707.672 91.0901 709.072 90.6903 710.918 90.6903H714.916V90.3191C714.916 89.4815 714.678 88.8913 714.202 88.5486C713.745 88.206 712.812 88.0346 711.404 88.0346C709.862 88.0346 708.377 88.2726 706.949 88.7485V86.0357C707.577 85.7883 708.339 85.5884 709.233 85.4361C710.147 85.2647 711.137 85.1791 712.203 85.1791C714.24 85.1791 715.811 85.5979 716.915 86.4355C718.038 87.2541 718.6 88.5772 718.6 90.4048V99H715.259L715.059 97.7721C714.526 98.248 713.869 98.6193 713.088 98.8858C712.308 99.1523 711.327 99.2856 710.147 99.2856ZM711.204 96.7441C712.06 96.7441 712.803 96.6013 713.431 96.3158C714.059 96.0302 714.554 95.6685 714.916 95.2307V93.089H711.004C709.5 93.089 708.748 93.7077 708.748 94.9451C708.748 96.1444 709.567 96.7441 711.204 96.7441Z" fill="white"/>
<path d="M623.12 120V109.696H630.08V110.736H624.432V114.336H629.504V115.36H624.432V118.976H630.08V120H623.12ZM631.995 120V112.416H633.179L633.259 113.28C633.664 112.96 634.091 112.709 634.539 112.528C634.998 112.347 635.488 112.256 636.011 112.256C636.576 112.256 637.014 112.347 637.323 112.528C637.643 112.709 637.878 112.965 638.027 113.296C638.39 112.997 638.806 112.752 639.275 112.56C639.744 112.357 640.304 112.256 640.955 112.256C641.819 112.256 642.459 112.48 642.875 112.928C643.302 113.365 643.515 114.043 643.515 114.96V120H642.219V115.088C642.219 114.416 642.075 113.952 641.787 113.696C641.51 113.44 641.056 113.312 640.427 113.312C640.011 113.312 639.611 113.381 639.227 113.52C638.854 113.659 638.534 113.872 638.267 114.16C638.331 114.427 638.363 114.736 638.363 115.088V120H637.131V115.12C637.131 114.48 637.024 114.021 636.811 113.744C636.598 113.456 636.176 113.312 635.547 113.312C635.12 113.312 634.71 113.408 634.315 113.6C633.931 113.781 633.59 114.011 633.291 114.288V120H631.995ZM648.905 120.16C647.582 120.16 646.617 119.824 646.009 119.152C645.411 118.469 645.113 117.488 645.113 116.208C645.113 114.939 645.417 113.963 646.025 113.28C646.633 112.597 647.593 112.256 648.905 112.256C650.217 112.256 651.177 112.597 651.785 113.28C652.393 113.963 652.697 114.939 652.697 116.208C652.697 117.488 652.398 118.469 651.801 119.152C651.203 119.824 650.238 120.16 648.905 120.16ZM648.905 119.04C649.811 119.04 650.451 118.816 650.825 118.368C651.198 117.909 651.385 117.189 651.385 116.208C651.385 115.227 651.193 114.512 650.809 114.064C650.435 113.605 649.801 113.376 648.905 113.376C648.009 113.376 647.369 113.605 646.985 114.064C646.611 114.512 646.424 115.227 646.424 116.208C646.424 117.189 646.611 117.909 646.985 118.368C647.358 118.816 647.998 119.04 648.905 119.04ZM657.388 120.16C656.641 120.16 656.076 119.963 655.692 119.568C655.319 119.163 655.132 118.603 655.132 117.888V113.456H653.98V112.416H655.132V110.544L656.444 110.144V112.416H658.54L658.46 113.456H656.444V117.824C656.444 118.283 656.545 118.613 656.748 118.816C656.961 119.008 657.324 119.104 657.836 119.104C658.113 119.104 658.417 119.051 658.748 118.944V119.936C658.353 120.085 657.9 120.16 657.388 120.16ZM660.668 110.64V109.44H662.124V110.64H660.668ZM660.796 120V113.456H659.628L659.756 112.416H662.108V120H660.796ZM667.842 120.16C666.519 120.16 665.554 119.824 664.946 119.152C664.349 118.469 664.05 117.488 664.05 116.208C664.05 114.939 664.354 113.963 664.962 113.28C665.57 112.597 666.53 112.256 667.842 112.256C669.154 112.256 670.114 112.597 670.722 113.28C671.33 113.963 671.634 114.939 671.634 116.208C671.634 117.488 671.335 118.469 670.738 119.152C670.141 119.824 669.175 120.16 667.842 120.16ZM667.842 119.04C668.749 119.04 669.389 118.816 669.762 118.368C670.135 117.909 670.322 117.189 670.322 116.208C670.322 115.227 670.13 114.512 669.746 114.064C669.373 113.605 668.738 113.376 667.842 113.376C666.946 113.376 666.306 113.605 665.922 114.064C665.549 114.512 665.362 115.227 665.362 116.208C665.362 117.189 665.549 117.909 665.922 118.368C666.295 118.816 666.935 119.04 667.842 119.04ZM673.558 120V112.416H674.742L674.822 113.28C675.184 112.981 675.606 112.736 676.086 112.544C676.576 112.352 677.136 112.256 677.766 112.256C678.726 112.256 679.424 112.48 679.862 112.928C680.299 113.376 680.517 114.08 680.517 115.04V120H679.206V115.088C679.206 114.427 679.072 113.968 678.806 113.712C678.539 113.445 678.027 113.312 677.27 113.312C676.8 113.312 676.358 113.397 675.942 113.568C675.526 113.739 675.168 113.973 674.87 114.272V120H673.558ZM686.37 120V109.696H690.402C691.895 109.696 692.989 110.101 693.682 110.912C694.375 111.723 694.722 113.056 694.722 114.912C694.722 116.672 694.381 117.963 693.698 118.784C693.026 119.595 691.927 120 690.402 120H686.37ZM687.682 118.976H690.162C690.887 118.976 691.49 118.869 691.97 118.656C692.45 118.432 692.807 118.027 693.042 117.44C693.287 116.853 693.41 116.011 693.41 114.912C693.41 113.824 693.298 112.976 693.074 112.368C692.861 111.76 692.514 111.339 692.034 111.104C691.565 110.859 690.941 110.736 690.162 110.736H687.682V118.976ZM700.364 120.16C699.009 120.16 697.996 119.835 697.324 119.184C696.652 118.533 696.316 117.531 696.316 116.176C696.316 114.96 696.604 114.005 697.18 113.312C697.766 112.608 698.689 112.256 699.948 112.256C700.694 112.256 701.308 112.395 701.788 112.672C702.278 112.939 702.641 113.312 702.876 113.792C703.121 114.261 703.244 114.795 703.244 115.392V116.816H697.628C697.67 117.392 697.793 117.845 697.996 118.176C698.209 118.507 698.524 118.747 698.94 118.896C699.366 119.035 699.926 119.104 700.62 119.104C701.398 119.104 702.113 118.971 702.764 118.704V119.728C702.433 119.867 702.06 119.973 701.644 120.048C701.238 120.123 700.812 120.16 700.364 120.16ZM697.628 115.872H702.076V115.248C702.076 114.629 701.91 114.155 701.58 113.824C701.26 113.483 700.726 113.312 699.98 113.312C699.073 113.312 698.454 113.525 698.124 113.952C697.793 114.379 697.628 115.019 697.628 115.872ZM707.935 120.16C707.188 120.16 706.623 119.963 706.239 119.568C705.866 119.163 705.679 118.603 705.679 117.888V113.456H704.527V112.416H705.679V110.544L706.991 110.144V112.416H709.087L709.007 113.456H706.991V117.824C706.991 118.283 707.092 118.613 707.295 118.816C707.508 119.008 707.871 119.104 708.383 119.104C708.66 119.104 708.964 119.051 709.295 118.944V119.936C708.9 120.085 708.447 120.16 707.935 120.16ZM714.536 120.16C713.181 120.16 712.168 119.835 711.496 119.184C710.824 118.533 710.488 117.531 710.488 116.176C710.488 114.96 710.776 114.005 711.352 113.312C711.938 112.608 712.861 112.256 714.12 112.256C714.866 112.256 715.48 112.395 715.96 112.672C716.45 112.939 716.813 113.312 717.048 113.792C717.293 114.261 717.416 114.795 717.416 115.392V116.816H711.799C711.842 117.392 711.965 117.845 712.168 118.176C712.381 118.507 712.696 118.747 713.112 118.896C713.538 119.035 714.098 119.104 714.792 119.104C715.57 119.104 716.285 118.971 716.936 118.704V119.728C716.605 119.867 716.232 119.973 715.816 120.048C715.41 120.123 714.984 120.16 714.536 120.16ZM711.799 115.872H716.248V115.248C716.248 114.629 716.082 114.155 715.752 113.824C715.432 113.483 714.898 113.312 714.152 113.312C713.245 113.312 712.626 113.525 712.296 113.952C711.965 114.379 711.799 115.019 711.799 115.872ZM722.923 120.16C721.6 120.16 720.619 119.819 719.979 119.136C719.339 118.443 719.019 117.467 719.019 116.208C719.019 114.875 719.381 113.883 720.107 113.232C720.832 112.581 721.808 112.256 723.035 112.256C723.536 112.256 723.952 112.293 724.283 112.368C724.613 112.432 724.933 112.539 725.243 112.688V113.728C724.667 113.451 724.011 113.312 723.275 113.312C722.336 113.312 721.611 113.536 721.099 113.984C720.587 114.421 720.331 115.163 720.331 116.208C720.331 117.211 720.555 117.947 721.003 118.416C721.451 118.875 722.192 119.104 723.227 119.104C723.963 119.104 724.64 118.965 725.259 118.688V119.744C724.928 119.883 724.571 119.984 724.187 120.048C723.813 120.123 723.392 120.16 722.923 120.16ZM729.497 120.16C728.751 120.16 728.185 119.963 727.801 119.568C727.428 119.163 727.241 118.603 727.241 117.888V113.456H726.089V112.416H727.241V110.544L728.553 110.144V112.416H730.649L730.569 113.456H728.553V117.824C728.553 118.283 728.655 118.613 728.857 118.816C729.071 119.008 729.433 119.104 729.945 119.104C730.223 119.104 730.527 119.051 730.857 118.944V119.936C730.463 120.085 730.009 120.16 729.497 120.16ZM732.778 110.64V109.44H734.234V110.64H732.778ZM732.906 120V113.456H731.738L731.866 112.416H734.218V120H732.906ZM739.951 120.16C738.629 120.16 737.663 119.824 737.055 119.152C736.458 118.469 736.159 117.488 736.159 116.208C736.159 114.939 736.463 113.963 737.071 113.28C737.679 112.597 738.639 112.256 739.951 112.256C741.263 112.256 742.223 112.597 742.831 113.28C743.439 113.963 743.743 114.939 743.743 116.208C743.743 117.488 743.445 118.469 742.847 119.152C742.25 119.824 741.285 120.16 739.951 120.16ZM739.951 119.04C740.858 119.04 741.498 118.816 741.871 118.368C742.245 117.909 742.431 117.189 742.431 116.208C742.431 115.227 742.239 114.512 741.855 114.064C741.482 113.605 740.847 113.376 739.951 113.376C739.055 113.376 738.415 113.605 738.031 114.064C737.658 114.512 737.471 115.227 737.471 116.208C737.471 117.189 737.658 117.909 738.031 118.368C738.405 118.816 739.045 119.04 739.951 119.04ZM745.667 120V112.416H746.851L746.931 113.28C747.294 112.981 747.715 112.736 748.195 112.544C748.686 112.352 749.246 112.256 749.875 112.256C750.835 112.256 751.534 112.48 751.971 112.928C752.408 113.376 752.627 114.08 752.627 115.04V120H751.315V115.088C751.315 114.427 751.182 113.968 750.915 113.712C750.648 113.445 750.136 113.312 749.379 113.312C748.91 113.312 748.467 113.397 748.051 113.568C747.635 113.739 747.278 113.973 746.979 114.272V120H745.667Z" fill="white"/>
</svg>
